<svg id="Layer_1" data-name="Layer 1" xmlns="http://www.w3.org/2000/svg" xmlns:xlink="http://www.w3.org/1999/xlink" viewBox="0 0 79.19 158.38"><defs><style>.cls-1{fill:none;}.cls-2{isolation:isolate;}.cls-3{fill:#8e8a6d;}.cls-4{clip-path:url(#clip-path);}.cls-5{fill:#fffacc;}.cls-6{fill:#fff9c5;}.cls-7{fill:#faf4c1;}.cls-8{fill:#f5efbd;}.cls-9{fill:#f0eab9;}.cls-10{fill:#ebe5b5;}.cls-11{fill:#e6e0b1;}.cls-12{fill:#e0dbad;}.cls-13{fill:#dbd6a9;}.cls-14{fill:#d6d1a5;}.cls-15{fill:#d1cca2;}.cls-16{fill:#ccc79e;}.cls-17{fill:#c7c29a;}.cls-18{fill:#c2bd96;}.cls-19{fill:#bdb892;}.cls-20{fill:#b8b38e;}.cls-21{fill:#b3ae8a;}.cls-22{fill:#ada986;}.cls-23{fill:#a8a482;}.cls-24{fill:#a39f7e;}.cls-25{fill:#9e9a7a;}.cls-26{fill:#999576;}.cls-27{fill:#949072;}.cls-28{fill:#8f8b6e;}.cls-29{fill:#8a866a;}.cls-30{fill:#858166;}.cls-31{clip-path:url(#clip-path-2);}.cls-32{clip-path:url(#clip-path-3);}.cls-33{fill:#fffbdb;}.cls-34{fill:#fffbda;}.cls-35{fill:#fffbd9;}.cls-36{fill:#fffbd7;}.cls-37{fill:#fffbd6;}.cls-38{fill:#fffbd5;}.cls-39{fill:#fffad3;}.cls-40{fill:#fffad1;}.cls-41{fill:#fffacf;}.cls-42{clip-path:url(#clip-path-4);}.cls-43{clip-path:url(#clip-path-5);}.cls-44{clip-path:url(#clip-path-6);}.cls-45{clip-path:url(#clip-path-7);}.cls-46{fill:#fffbdc;}.cls-47{fill:#fffbdd;}.cls-48{fill:#fffcde;}.cls-49{fill:#fffcdf;}.cls-50{fill:#fffce0;}.cls-51{fill:#fffce1;}.cls-52{fill:#fffce2;}.cls-53{fill:#fffce3;}.cls-54{fill:#ddd8ab;}.cls-55{clip-path:url(#clip-path-8);}</style><clipPath id="clip-path" transform="translate(0 0)"><path class="cls-1" d="M67.72,154.38v4H11.46v-4Z"/></clipPath><clipPath id="clip-path-2" transform="translate(0 0)"><path class="cls-1" d="M11.46,154.38v4A11.47,11.47,0,0,1,0,146.92H4A7.47,7.47,0,0,0,11.46,154.38Z"/></clipPath><clipPath id="clip-path-3" transform="translate(0 0)"><path class="cls-1" d="M75.19,146.92h4a11.47,11.47,0,0,1-11.47,11.46v-4A7.48,7.48,0,0,0,75.19,146.92Z"/></clipPath><clipPath id="clip-path-4" transform="translate(0 0)"><path class="cls-1" d="M4,146.92H0V11.47H4Z"/></clipPath><clipPath id="clip-path-5" transform="translate(0 0)"><path class="cls-1" d="M75.19,11.47h4V146.92h-4Z"/></clipPath><clipPath id="clip-path-6" transform="translate(0 0)"><path class="cls-1" d="M11.46,4V0H67.72V4Z"/></clipPath><clipPath id="clip-path-7" transform="translate(0 0)"><path class="cls-1" d="M67.72,4V0A11.47,11.47,0,0,1,79.19,11.47h-4A7.48,7.48,0,0,0,67.72,4Z"/></clipPath><clipPath id="clip-path-8" transform="translate(0 0)"><path class="cls-1" d="M4,11.47H0A11.47,11.47,0,0,1,11.46,0V4A7.47,7.47,0,0,0,4,11.47Z"/></clipPath></defs><title>back</title><g class="cls-2"><rect class="cls-3" x="11.47" width="56.26"/><g class="cls-2"><g class="cls-4"><g class="cls-2"><polyline class="cls-5" points="11.47 154.38 67.72 154.38 67.72 154.38 11.47 154.38 11.47 154.38"/><path class="cls-6" d="M11.46,154.38H67.72v0H11.46v0" transform="translate(0 0)"/><path class="cls-7" d="M11.46,154.41H67.72v0H11.46v0" transform="translate(0 0)"/><path class="cls-8" d="M11.46,154.43H67.72v0H11.46v0" transform="translate(0 0)"/><path class="cls-9" d="M11.46,154.46H67.72v0H11.46v0" transform="translate(0 0)"/><path class="cls-10" d="M11.46,154.49H67.72v0H11.46v0" transform="translate(0 0)"/><path class="cls-11" d="M11.46,154.51H67.72v0H11.46v0" transform="translate(0 0)"/><path class="cls-12" d="M11.46,154.54H67.72v0H11.46v0" transform="translate(0 0)"/><path class="cls-13" d="M11.46,154.56H67.72v0H11.46v0" transform="translate(0 0)"/><path class="cls-14" d="M11.46,154.59H67.72v0H11.46v0" transform="translate(0 0)"/><path class="cls-15" d="M11.46,154.61H67.72v0H11.46v0" transform="translate(0 0)"/><path class="cls-16" d="M11.46,154.64H67.72v0H11.46v0" transform="translate(0 0)"/><path class="cls-17" d="M11.46,154.66H67.72v0H11.46v0" transform="translate(0 0)"/><path class="cls-18" d="M11.46,154.69H67.72v0H11.46v0" transform="translate(0 0)"/><path class="cls-19" d="M11.46,154.72H67.72v.05H11.46v-.05" transform="translate(0 0)"/><path class="cls-20" d="M11.46,154.77H67.72v.06H11.46v-.06" transform="translate(0 0)"/><path class="cls-21" d="M11.46,154.83H67.72v0H11.46v0" transform="translate(0 0)"/><path class="cls-22" d="M11.46,154.88H67.72v.05H11.46v-.05" transform="translate(0 0)"/><path class="cls-23" d="M11.46,154.93H67.72V155H11.46v-.06" transform="translate(0 0)"/><path class="cls-24" d="M11.46,155H67.72v.06H11.46V155" transform="translate(0 0)"/><path class="cls-25" d="M11.46,155.05H67.72v.09H11.46v-.09" transform="translate(0 0)"/><path class="cls-26" d="M11.46,155.14H67.72v.09H11.46v-.09" transform="translate(0 0)"/><path class="cls-27" d="M11.46,155.23H67.72v.09H11.46v-.09" transform="translate(0 0)"/><path class="cls-28" d="M11.46,155.32H67.72v.16H11.46v-.16" transform="translate(0 0)"/><path class="cls-29" d="M11.46,155.48H67.72v.18H11.46v-.18" transform="translate(0 0)"/><path class="cls-30" d="M11.46,155.66H67.72v2.72H11.46v-2.72" transform="translate(0 0)"/></g></g></g><g class="cls-2"><g class="cls-31"><g class="cls-2"><path class="cls-6" d="M11.46,154.38v4A11.47,11.47,0,0,1,0,146.92H4a7.47,7.47,0,0,0,7.46,7.46" transform="translate(0 0)"/><path class="cls-6" d="M4,146.92a7.46,7.46,0,0,0,7.46,7.46v4A11.47,11.47,0,0,1,0,146.92H4" transform="translate(0 0)"/><path class="cls-7" d="M4,146.92a7.46,7.46,0,0,0,7.48,7.48v4A11.47,11.47,0,0,1,0,146.92H4" transform="translate(0 0)"/><path class="cls-8" d="M4,146.92a7.54,7.54,0,0,0,7.5,7.5v4A11.47,11.47,0,0,1,0,146.92H4" transform="translate(0 0)"/><path class="cls-9" d="M3.94,146.92a7.53,7.53,0,0,0,7.52,7.52v3.94A11.47,11.47,0,0,1,0,146.92H3.94" transform="translate(0 0)"/><path class="cls-10" d="M3.92,146.92a7.53,7.53,0,0,0,7.54,7.54v3.92A11.47,11.47,0,0,1,0,146.92H3.92" transform="translate(0 0)"/><path class="cls-11" d="M3.91,146.92a7.6,7.6,0,0,0,7.55,7.56v3.9A11.47,11.47,0,0,1,0,146.92H3.91" transform="translate(0 0)"/><path class="cls-12" d="M3.89,146.92a7.6,7.6,0,0,0,7.57,7.58v3.88A11.47,11.47,0,0,1,0,146.92H3.89" transform="translate(0 0)"/><path class="cls-13" d="M3.87,146.92a7.65,7.65,0,0,0,7.59,7.6v3.86A11.47,11.47,0,0,1,0,146.92H3.87" transform="translate(0 0)"/><path class="cls-14" d="M3.85,146.92a7.64,7.64,0,0,0,7.61,7.63v3.83A11.47,11.47,0,0,1,0,146.92H3.85" transform="translate(0 0)"/><path class="cls-15" d="M3.82,146.92a7.73,7.73,0,0,0,7.64,7.66v3.8A11.47,11.47,0,0,1,0,146.92H3.82" transform="translate(0 0)"/><path class="cls-16" d="M3.79,146.92a7.73,7.73,0,0,0,7.67,7.69v3.77A11.47,11.47,0,0,1,0,146.92H3.79" transform="translate(0 0)"/><path class="cls-17" d="M3.76,146.92a7.81,7.81,0,0,0,7.7,7.72v3.74A11.47,11.47,0,0,1,0,146.92H3.76" transform="translate(0 0)"/><path class="cls-18" d="M3.73,146.92a7.91,7.91,0,0,0,7.73,7.76v3.7A11.47,11.47,0,0,1,0,146.92H3.73" transform="translate(0 0)"/><path class="cls-19" d="M3.69,146.92a7.9,7.9,0,0,0,7.77,7.8v3.66A11.47,11.47,0,0,1,0,146.92H3.69" transform="translate(0 0)"/><path class="cls-20" d="M3.65,146.92a8,8,0,0,0,7.81,7.84v3.62A11.47,11.47,0,0,1,0,146.92H3.65" transform="translate(0 0)"/><path class="cls-21" d="M3.61,146.92a8,8,0,0,0,7.85,7.89v3.57A11.47,11.47,0,0,1,0,146.92H3.61" transform="translate(0 0)"/><path class="cls-22" d="M3.56,146.92a8.14,8.14,0,0,0,7.9,8v3.51A11.47,11.47,0,0,1,0,146.92H3.56" transform="translate(0 0)"/><path class="cls-23" d="M3.5,146.92a8.23,8.23,0,0,0,8,8v3.46A11.47,11.47,0,0,1,0,146.92H3.5" transform="translate(0 0)"/><path class="cls-24" d="M3.45,146.92h0a8.34,8.34,0,0,0,8,8.06v3.4A11.47,11.47,0,0,1,0,146.92H3.45" transform="translate(0 0)"/><path class="cls-25" d="M3.39,146.92a8.4,8.4,0,0,0,8.07,8.13v3.33A11.47,11.47,0,0,1,0,146.92H3.39" transform="translate(0 0)"/><path class="cls-26" d="M3.32,146.92a8.52,8.52,0,0,0,8.14,8.2v3.26A11.47,11.47,0,0,1,0,146.92H3.32" transform="translate(0 0)"/><path class="cls-27" d="M3.24,146.92a8.61,8.61,0,0,0,8.22,8.29v3.17A11.47,11.47,0,0,1,0,146.92H3.24" transform="translate(0 0)"/><path class="cls-28" d="M3.15,146.92a8.82,8.82,0,0,0,8.31,8.39v3.07A11.47,11.47,0,0,1,0,146.92H3.15" transform="translate(0 0)"/><path class="cls-29" d="M3,146.92a9,9,0,0,0,8.44,8.53v2.93A11.47,11.47,0,0,1,0,146.92H3" transform="translate(0 0)"/><path class="cls-30" d="M2.84,146.92a9.36,9.36,0,0,0,8.62,8.74v2.72A11.47,11.47,0,0,1,0,146.92H2.84" transform="translate(0 0)"/></g></g></g><g class="cls-2"><g class="cls-32"><g class="cls-2"><path class="cls-33" d="M75.19,146.92h4a11.47,11.47,0,0,1-11.47,11.46v-4a7.48,7.48,0,0,0,7.47-7.46" transform="translate(0 0)"/><path class="cls-33" d="M67.72,154.38a7.48,7.48,0,0,0,7.47-7.46h.23l0,.08,0-.08h3.71a11.47,11.47,0,0,1-11.47,11.46v-4" transform="translate(0 0)"/><path class="cls-34" d="M67.72,154.38a7.48,7.48,0,0,0,7.47-7.46h.16l.11.25,0-.25h3.69a11.47,11.47,0,0,1-11.47,11.46v-4" transform="translate(0 0)"/><path class="cls-35" d="M67.72,154.38a7.48,7.48,0,0,0,7.47-7.46h.13a1.1,1.1,0,0,0,.12.39l.09-.39h3.66a11.47,11.47,0,0,1-11.47,11.46v-4" transform="translate(0 0)"/><path class="cls-36" d="M67.72,154.38a7.48,7.48,0,0,0,7.47-7.46h.11a5.26,5.26,0,0,0,.12.78c0-.23.1-.55.14-.78h3.63a11.47,11.47,0,0,1-11.47,11.46v-4" transform="translate(0 0)"/><path class="cls-37" d="M67.72,154.38a7.48,7.48,0,0,0,7.47-7.46h.09a4.32,4.32,0,0,0,.1,1.13,10.26,10.26,0,0,0,.21-1.13h3.6a11.47,11.47,0,0,1-11.47,11.46v-4" transform="translate(0 0)"/><path class="cls-38" d="M67.72,154.38a7.48,7.48,0,0,0,7.47-7.46h.08a6.76,6.76,0,0,1,0,1.15c0,.08-.07.19,0,.27s.09.08.13.06a7.74,7.74,0,0,0,.3-1.48h3.57a11.47,11.47,0,0,1-11.47,11.46v-4" transform="translate(0 0)"/><path class="cls-39" d="M67.72,154.38a7.48,7.48,0,0,0,7.47-7.46h.06a8,8,0,0,1-.19,2c.14-.14.43-.45.58-2h3.55a11.47,11.47,0,0,1-11.47,11.46v-4" transform="translate(0 0)"/><path class="cls-40" d="M67.72,154.38a7.48,7.48,0,0,0,7.47-7.46h0a8.78,8.78,0,0,1-.36,2.57,5,5,0,0,0,.79-2.57h3.52a11.47,11.47,0,0,1-11.47,11.46v-4" transform="translate(0 0)"/><path class="cls-41" d="M67.72,154.38a7.48,7.48,0,0,0,7.47-7.46h0a8.82,8.82,0,0,1-.58,3.16,6.16,6.16,0,0,0,1-3.16h3.5a11.47,11.47,0,0,1-11.47,11.46v-4" transform="translate(0 0)"/><path class="cls-5" d="M67.72,154.38a7.48,7.48,0,0,0,7.47-7.46h0c0,1.29,0,1.29-.87,3.75a6.76,6.76,0,0,0,1.39-3.75h3.47a11.47,11.47,0,0,1-11.47,11.46v-4" transform="translate(0 0)"/><path class="cls-6" d="M67.72,154.38c.08-.08.27,0,.39,0a8.47,8.47,0,0,0,7.64-7.45h3.44a11.47,11.47,0,0,1-11.47,11.46v-4" transform="translate(0 0)"/><path class="cls-7" d="M67.72,154.4a8.34,8.34,0,0,0,8.07-7.48h3.4a11.47,11.47,0,0,1-11.47,11.46v-4" transform="translate(0 0)"/><path class="cls-8" d="M67.72,154.42a8.34,8.34,0,0,0,8.12-7.5h3.35a11.47,11.47,0,0,1-11.47,11.46v-4" transform="translate(0 0)"/><path class="cls-9" d="M67.72,154.44a8.36,8.36,0,0,0,8.17-7.52h3.3a11.47,11.47,0,0,1-11.47,11.46v-3.94" transform="translate(0 0)"/><path class="cls-10" d="M67.72,154.46A8.45,8.45,0,0,0,76,146.92h3.23a11.47,11.47,0,0,1-11.47,11.46v-3.92" transform="translate(0 0)"/><path class="cls-11" d="M67.72,154.48A8.47,8.47,0,0,0,76,146.92h3.15a11.47,11.47,0,0,1-11.47,11.46v-3.9" transform="translate(0 0)"/><path class="cls-12" d="M67.72,154.5a8.54,8.54,0,0,0,8.42-7.58h3a11.47,11.47,0,0,1-11.47,11.46V154.5" transform="translate(0 0)"/><path class="cls-13" d="M67.72,154.52a8.71,8.71,0,0,0,8.53-7.6h2.94a11.47,11.47,0,0,1-11.47,11.46v-3.86" transform="translate(0 0)"/><path class="cls-14" d="M67.72,154.55a8.87,8.87,0,0,0,8.64-7.63h2.83a11.47,11.47,0,0,1-11.47,11.46v-3.83" transform="translate(0 0)"/><path class="cls-15" d="M67.72,154.58a9,9,0,0,0,8.76-7.66h2.71a11.47,11.47,0,0,1-11.47,11.46v-3.8" transform="translate(0 0)"/><path class="cls-16" d="M67.72,154.61a9.09,9.09,0,0,0,8.89-7.69h2.58a11.47,11.47,0,0,1-11.47,11.46v-3.77" transform="translate(0 0)"/><path class="cls-17" d="M67.72,154.64a9.3,9.3,0,0,0,9-7.72h2.44a11.47,11.47,0,0,1-11.47,11.46v-3.74" transform="translate(0 0)"/><path class="cls-18" d="M67.72,154.68c4.29.12,8.24-3.22,9.19-7.76h2.28a11.47,11.47,0,0,1-11.47,11.46v-3.7" transform="translate(0 0)"/><path class="cls-19" d="M67.72,154.72c4.41.1,8.26-3.11,9.37-7.8h2.1a11.47,11.47,0,0,1-11.47,11.46v-3.66" transform="translate(0 0)"/><path class="cls-20" d="M67.72,154.76a9.89,9.89,0,0,0,9.57-7.84h1.9a11.47,11.47,0,0,1-11.47,11.46v-3.62" transform="translate(0 0)"/><path class="cls-21" d="M67.72,154.81c4.5.12,8.52-3.13,9.79-7.89h1.68a11.47,11.47,0,0,1-11.47,11.46v-3.57" transform="translate(0 0)"/><path class="cls-22" d="M67.72,154.86c5.11.13,8.92-3.9,10-7.94h1.42a11.47,11.47,0,0,1-11.47,11.46v-3.52" transform="translate(0 0)"/><path class="cls-23" d="M67.72,154.92c5.14.22,9.17-4,10.35-8h1.12a11.47,11.47,0,0,1-11.47,11.46v-3.46" transform="translate(0 0)"/><path class="cls-24" d="M67.72,155c5.64.19,9.71-4.7,10.68-8.06h.79a11.47,11.47,0,0,1-11.47,11.46V155" transform="translate(0 0)"/><path class="cls-25" d="M67.72,155.05h0c5.49.26,10.12-4.56,11-8.13h.45a11.47,11.47,0,0,1-11.47,11.46v-3.33" transform="translate(0 0)"/><path class="cls-26" d="M67.72,155.12c5.7.26,10.72-4.72,11.32-8.2h.15a11.47,11.47,0,0,1-11.47,11.46v-3.26" transform="translate(0 0)"/><path class="cls-27" d="M67.72,155.21c4.75.28,11.28-3.77,11.47-8.29a11.47,11.47,0,0,1-11.47,11.46v-3.17" transform="translate(0 0)"/><path class="cls-28" d="M67.72,155.31c4.35.32,10.76-3,11.37-6.88a11.47,11.47,0,0,1-11.37,9.95v-3.07" transform="translate(0 0)"/><path class="cls-29" d="M67.72,155.45c3.57.31,9.9-1.82,11-5.28a11.47,11.47,0,0,1-11,8.21v-2.93" transform="translate(0 0)"/><path class="cls-30" d="M67.72,155.66c2.85.27,8.69-.69,10.23-3.56a11.45,11.45,0,0,1-10.23,6.28v-2.72" transform="translate(0 0)"/></g></g></g><g class="cls-2"><g class="cls-42"><g class="cls-2"><polyline class="cls-5" points="4 11.47 4 146.92 4 146.92 4 11.47 4 11.47"/><path class="cls-6" d="M4,11.47V146.92H4V11.47H4" transform="translate(0 0)"/><path class="cls-7" d="M4,11.47V146.92H4V11.47H4" transform="translate(0 0)"/><path class="cls-8" d="M4,11.47V146.92h0V11.47H4" transform="translate(0 0)"/><path class="cls-9" d="M3.92,11.47V146.92h0V11.47h0" transform="translate(0 0)"/><path class="cls-10" d="M3.9,11.47V146.92h0V11.47h0" transform="translate(0 0)"/><path class="cls-11" d="M3.87,11.47V146.92h0V11.47h0" transform="translate(0 0)"/><path class="cls-12" d="M3.85,11.47V146.92h0V11.47h0" transform="translate(0 0)"/><path class="cls-13" d="M3.83,11.47V146.92h0V11.47h0" transform="translate(0 0)"/><path class="cls-14" d="M3.8,11.47V146.92h0V11.47h0" transform="translate(0 0)"/><path class="cls-15" d="M3.78,11.47V146.92h0V11.47h0" transform="translate(0 0)"/><path class="cls-16" d="M3.76,11.47V146.92h0V11.47h0" transform="translate(0 0)"/><path class="cls-17" d="M3.73,11.47V146.92h0V11.47h0" transform="translate(0 0)"/><path class="cls-18" d="M3.71,11.47V146.92h0V11.47h0" transform="translate(0 0)"/><path class="cls-19" d="M3.68,11.47V146.92h0V11.47h0" transform="translate(0 0)"/><path class="cls-20" d="M3.65,11.47V146.92H3.59V11.47h.06" transform="translate(0 0)"/><path class="cls-21" d="M3.59,11.47V146.92h0V11.47h0" transform="translate(0 0)"/><path class="cls-22" d="M3.54,11.47V146.92h0V11.47h0" transform="translate(0 0)"/><path class="cls-23" d="M3.49,11.47V146.92H3.44V11.47h.05" transform="translate(0 0)"/><path class="cls-24" d="M3.44,11.47V146.92H3.38V11.47h.06" transform="translate(0 0)"/><path class="cls-25" d="M3.38,11.47V146.92H3.31V11.47h.07" transform="translate(0 0)"/><path class="cls-26" d="M3.31,11.47V146.92H3.22V11.47h.09" transform="translate(0 0)"/><path class="cls-27" d="M3.22,11.47V146.92h-.1V11.47h.1" transform="translate(0 0)"/><path class="cls-28" d="M3.12,11.47V146.92H3V11.47h.1" transform="translate(0 0)"/><path class="cls-29" d="M3,11.47V146.92h-.2V11.47H3" transform="translate(0 0)"/><path class="cls-30" d="M2.82,11.47V146.92H0V11.47H2.82" transform="translate(0 0)"/></g></g></g><g class="cls-2"><g class="cls-43"><g class="cls-2"><path class="cls-5" d="M75.19,146.92V11.47h0V146.92h0" transform="translate(0 0)"/><path class="cls-41" d="M75.22,146.92V11.47h0V146.92h0" transform="translate(0 0)"/><path class="cls-40" d="M75.26,146.92V11.47h0V146.92h0" transform="translate(0 0)"/><path class="cls-39" d="M75.3,146.92V11.47h0V146.92h0" transform="translate(0 0)"/><path class="cls-38" d="M75.33,146.92V11.47h0V146.92h0" transform="translate(0 0)"/><path class="cls-37" d="M75.37,146.92V11.47h0V146.92h0" transform="translate(0 0)"/><path class="cls-36" d="M75.41,146.92V11.47h0V146.92h0" transform="translate(0 0)"/><path class="cls-35" d="M75.44,146.92V11.47h0V146.92h0" transform="translate(0 0)"/><path class="cls-34" d="M75.48,146.92V11.47h.07V146.92h-.07" transform="translate(0 0)"/><path class="cls-35" d="M75.55,146.92V11.47h0V146.92h0" transform="translate(0 0)"/><path class="cls-36" d="M75.57,146.92V11.47h0V146.92h0" transform="translate(0 0)"/><path class="cls-37" d="M75.6,146.92V11.47h0V146.92h0" transform="translate(0 0)"/><path class="cls-38" d="M75.63,146.92V11.47h0V146.92h0" transform="translate(0 0)"/><path class="cls-39" d="M75.66,146.92V11.47h0V146.92h0" transform="translate(0 0)"/><path class="cls-40" d="M75.69,146.92V11.47h0V146.92h0" transform="translate(0 0)"/><path class="cls-41" d="M75.72,146.92V11.47h0V146.92h0" transform="translate(0 0)"/><path class="cls-5" d="M75.75,146.92V11.47h0V146.92h0" transform="translate(0 0)"/><path class="cls-6" d="M75.77,146.92V11.47h0V146.92h0" transform="translate(0 0)"/><path class="cls-7" d="M75.8,146.92V11.47h0V146.92h0" transform="translate(0 0)"/><path class="cls-8" d="M75.83,146.92V11.47h.07V146.92h-.07" transform="translate(0 0)"/><path class="cls-9" d="M75.9,146.92V11.47H76V146.92H75.9" transform="translate(0 0)"/><path class="cls-10" d="M76,146.92V11.47h.08V146.92H76" transform="translate(0 0)"/><path class="cls-11" d="M76.06,146.92V11.47h.08V146.92h-.08" transform="translate(0 0)"/><path class="cls-12" d="M76.14,146.92V11.47h.11V146.92h-.11" transform="translate(0 0)"/><path class="cls-13" d="M76.25,146.92V11.47h.12V146.92h-.12" transform="translate(0 0)"/><path class="cls-14" d="M76.37,146.92V11.47h.11V146.92h-.11" transform="translate(0 0)"/><path class="cls-15" d="M76.48,146.92V11.47h.14V146.92h-.14" transform="translate(0 0)"/><path class="cls-16" d="M76.62,146.92V11.47h.13V146.92h-.13" transform="translate(0 0)"/><path class="cls-17" d="M76.75,146.92V11.47h.17V146.92h-.17" transform="translate(0 0)"/><path class="cls-18" d="M76.92,146.92V11.47h.17V146.92h-.17" transform="translate(0 0)"/><path class="cls-19" d="M77.09,146.92V11.47h.2V146.92h-.2" transform="translate(0 0)"/><path class="cls-20" d="M77.29,146.92V11.47h.23V146.92h-.23" transform="translate(0 0)"/><path class="cls-21" d="M77.52,146.92V11.47h.25V146.92h-.25" transform="translate(0 0)"/><path class="cls-22" d="M77.77,146.92V11.47h.3V146.92h-.3" transform="translate(0 0)"/><path class="cls-23" d="M78.07,146.92V11.47h.33V146.92h-.33" transform="translate(0 0)"/><path class="cls-24" d="M78.4,146.92V11.47h.34V146.92H78.4" transform="translate(0 0)"/><path class="cls-25" d="M78.74,146.92V11.47H79V146.92h-.3" transform="translate(0 0)"/><path class="cls-26" d="M79,146.92V11.47h.15V146.92H79" transform="translate(0 0)"/><polyline class="cls-27" points="79.19 146.92 79.19 11.47 79.19 11.47 79.19 146.92 79.19 146.92"/></g></g></g><g class="cls-2"><g class="cls-44"><g class="cls-2"><path class="cls-5" d="M67.72,4H11.46V3.93H67.72V4" transform="translate(0 0)"/><path class="cls-41" d="M67.72,3.93H11.46V3.86H67.72v.07" transform="translate(0 0)"/><path class="cls-40" d="M67.72,3.86H11.46V3.79H67.72v.07" transform="translate(0 0)"/><path class="cls-39" d="M67.72,3.79H11.46V3.72H67.72v.07" transform="translate(0 0)"/><path class="cls-38" d="M67.72,3.72H11.46V3.64H67.72v.08" transform="translate(0 0)"/><path class="cls-39" d="M67.72,3.64H11.46v0H67.72v0" transform="translate(0 0)"/><path class="cls-40" d="M67.72,3.61H11.46v0H67.72v0" transform="translate(0 0)"/><path class="cls-41" d="M67.72,3.57H11.46v0H67.72v0" transform="translate(0 0)"/><path class="cls-5" d="M67.72,3.54H11.46v0H67.72v0" transform="translate(0 0)"/><path class="cls-6" d="M67.72,3.5H11.46v0H67.72v0" transform="translate(0 0)"/><path class="cls-7" d="M67.72,3.47H11.46v0H67.72v0" transform="translate(0 0)"/><path class="cls-8" d="M67.72,3.43H11.46v0H67.72v0" transform="translate(0 0)"/><path class="cls-9" d="M67.72,3.4H11.46v0H67.72v0" transform="translate(0 0)"/><path class="cls-10" d="M67.72,3.37H11.46V3.3H67.72v.07" transform="translate(0 0)"/><path class="cls-11" d="M67.72,3.3H11.46V3.21H67.72V3.3" transform="translate(0 0)"/><path class="cls-12" d="M67.72,3.21H11.46V3.13H67.72v.08" transform="translate(0 0)"/><path class="cls-13" d="M67.72,3.13H11.46V3H67.72v.09" transform="translate(0 0)"/><path class="cls-14" d="M67.72,3H11.46V2.93H67.72V3" transform="translate(0 0)"/><path class="cls-15" d="M67.72,2.93H11.46V2.82H67.72v.11" transform="translate(0 0)"/><path class="cls-16" d="M67.72,2.82H11.46V2.7H67.72v.12" transform="translate(0 0)"/><path class="cls-17" d="M67.72,2.7H11.46V2.56H67.72V2.7" transform="translate(0 0)"/><path class="cls-18" d="M67.72,2.56H11.46V2.42H67.72v.14" transform="translate(0 0)"/><path class="cls-19" d="M67.72,2.42H11.46V2.25H67.72v.17" transform="translate(0 0)"/><path class="cls-20" d="M67.72,2.25H11.46V2.07H67.72v.18" transform="translate(0 0)"/><path class="cls-21" d="M67.72,2.07H11.46V1.86H67.72v.21" transform="translate(0 0)"/><path class="cls-22" d="M67.72,1.86H11.46V1.6H67.72v.26" transform="translate(0 0)"/><path class="cls-23" d="M67.72,1.6H11.46V1.31H67.72V1.6" transform="translate(0 0)"/><path class="cls-24" d="M67.72,1.31H11.46V1H67.72v.34" transform="translate(0 0)"/><path class="cls-25" d="M67.72,1H11.46V.59H67.72V1" transform="translate(0 0)"/><path class="cls-26" d="M67.72.59H11.46V.23H67.72V.59" transform="translate(0 0)"/><path class="cls-27" d="M67.72.23H11.46V0H67.72V.23" transform="translate(0 0)"/><path class="cls-28" d="M67.72,0h0" transform="translate(0 0)"/></g></g></g><g class="cls-2"><g class="cls-45"><g class="cls-2"><path class="cls-33" d="M67.72,4V0A11.47,11.47,0,0,1,79.19,11.47h-4A7.48,7.48,0,0,0,67.72,4" transform="translate(0 0)"/><path class="cls-33" d="M75.48,11.47c-.18-.17,0-.56,0-.8a6.93,6.93,0,0,0-6.2-6.79c5.39,2.15,6.16,5.67,6.15,7.59h-.24A7.48,7.48,0,0,0,67.72,4V0A11.47,11.47,0,0,1,79.19,11.47H75.48" transform="translate(0 0)"/><path class="cls-34" d="M75.5,11.47c-.08-.09,0-.29,0-.41a7,7,0,0,0-6.56-7.24c2.24.84,3.27,1.22,4.62,2.84a7.81,7.81,0,0,1,1.79,4.81h-.16A7.48,7.48,0,0,0,67.72,4V0A11.47,11.47,0,0,1,79.19,11.47H75.5" transform="translate(0 0)"/><path class="cls-35" d="M75.53,11.47c-.08-.09,0-.29,0-.41a7.08,7.08,0,0,0-7-7.29c3.49,1.31,3.63,1.37,4.72,2.62a7.64,7.64,0,0,1,2,5.08h-.13A7.48,7.48,0,0,0,67.72,4V0A11.47,11.47,0,0,1,79.19,11.47H75.53" transform="translate(0 0)"/><path class="cls-36" d="M75.56,11.47c-.08-.09,0-.29,0-.41a7.13,7.13,0,0,0-7.33-7.32c.89.38,1.88.46,2.75.91A8,8,0,0,1,73.31,6.4a7.63,7.63,0,0,1,2,5.07h-.11A7.48,7.48,0,0,0,67.72,4V0A11.47,11.47,0,0,1,79.19,11.47H75.56" transform="translate(0 0)"/><path class="cls-37" d="M75.59,11.47s0-.09,0-.13a7.2,7.2,0,0,0-2.16-5.59,7.31,7.31,0,0,0-5.72-2V0A11.47,11.47,0,0,1,79.19,11.47h-3.6" transform="translate(0 0)"/><path class="cls-38" d="M75.61,11.47c-.08-.09,0-.29,0-.41a7.24,7.24,0,0,0-2.17-5.33,7.38,7.38,0,0,0-5.74-2.05V0A11.47,11.47,0,0,1,79.19,11.47H75.61" transform="translate(0 0)"/><path class="cls-39" d="M75.64,11.47c-.08-.09,0-.29,0-.41a7.3,7.3,0,0,0-7.94-7.4V0A11.47,11.47,0,0,1,79.19,11.47H75.64" transform="translate(0 0)"/><path class="cls-40" d="M75.67,11.47c-.09-.09,0-.29,0-.41A7.42,7.42,0,0,0,73.5,5.69a7.27,7.27,0,0,0-5.78-2.06V0A11.47,11.47,0,0,1,79.19,11.47H75.67" transform="translate(0 0)"/><path class="cls-41" d="M75.69,11.47c-.08-.09,0-.29,0-.42a7.33,7.33,0,0,0-8-7.45V0A11.47,11.47,0,0,1,79.19,11.47h-3.5" transform="translate(0 0)"/><path class="cls-5" d="M75.72,11.47s0-.13,0-.18a7.24,7.24,0,0,0-2.18-5.65,7.33,7.33,0,0,0-5.83-2.07V0A11.47,11.47,0,0,1,79.19,11.47H75.72" transform="translate(0 0)"/><path class="cls-6" d="M75.75,11.47c-.17-.19,0-.58,0-.83s0-.5-.06-.71A7.33,7.33,0,0,0,73.59,5.6a7.47,7.47,0,0,0-5.87-2.07V0A11.47,11.47,0,0,1,79.19,11.47H75.75" transform="translate(0 0)"/><path class="cls-7" d="M75.79,11.47c-.08-.1,0-.3,0-.42a7.32,7.32,0,0,0-2.18-5.5,7.54,7.54,0,0,0-5.92-2V0A11.47,11.47,0,0,1,79.19,11.47h-3.4" transform="translate(0 0)"/><path class="cls-8" d="M75.83,11.47c-.06-.07,0-.23,0-.32A7.4,7.4,0,0,0,73.7,5.49a7.68,7.68,0,0,0-6-2V0A11.47,11.47,0,0,1,79.19,11.47H75.83" transform="translate(0 0)"/><path class="cls-9" d="M75.89,11.47c-.09-.1,0-.3,0-.43a7.32,7.32,0,0,0-2.16-5.62,7.61,7.61,0,0,0-6-2V0A11.47,11.47,0,0,1,79.19,11.47h-3.3" transform="translate(0 0)"/><path class="cls-10" d="M76,11.47c-.07-.08,0-.24,0-.34a7.18,7.18,0,0,0-2.14-5.79,7.53,7.53,0,0,0-6.13-2V0A11.47,11.47,0,0,1,79.19,11.47H76" transform="translate(0 0)"/><path class="cls-11" d="M76,11.47c-.09-.1,0-.31,0-.44a7.16,7.16,0,0,0-2.15-5.78,7.64,7.64,0,0,0-6.22-1.94V0A11.47,11.47,0,0,1,79.19,11.47H76" transform="translate(0 0)"/><path class="cls-12" d="M76.14,11.47c-.09-.1,0-.31,0-.44A7.21,7.21,0,0,0,74,5.15a7.59,7.59,0,0,0-6.32-1.92V0A11.47,11.47,0,0,1,79.19,11.47h-3" transform="translate(0 0)"/><path class="cls-13" d="M76.25,11.47c-.09-.1,0-.31,0-.45a7.23,7.23,0,0,0-2.16-6,7.58,7.58,0,0,0-6.42-1.91V0A11.47,11.47,0,0,1,79.19,11.47H76.25" transform="translate(0 0)"/><path class="cls-14" d="M76.36,11.47s0-.09,0-.13A7.38,7.38,0,0,0,74.24,5,7.57,7.57,0,0,0,67.72,3V0A11.47,11.47,0,0,1,79.19,11.47H76.36" transform="translate(0 0)"/><path class="cls-15" d="M76.48,11.47s0-.1,0-.14a7.4,7.4,0,0,0-2.14-6.5,7.67,7.67,0,0,0-6.64-1.9V0A11.47,11.47,0,0,1,79.19,11.47H76.48" transform="translate(0 0)"/><path class="cls-16" d="M76.61,11.47s0-.06,0-.09A7.37,7.37,0,0,0,74.49,4.7a7.75,7.75,0,0,0-6.77-1.88V0A11.47,11.47,0,0,1,79.19,11.47H76.61" transform="translate(0 0)"/><path class="cls-17" d="M76.75,11.47c-.09-.11,0-.33.08-.47a7.5,7.5,0,0,0-2.19-6.45A7.83,7.83,0,0,0,67.72,2.7V0A11.47,11.47,0,0,1,79.19,11.47H76.75" transform="translate(0 0)"/><path class="cls-18" d="M76.91,11.47c-.07-.09,0-.26.06-.38a7.5,7.5,0,0,0-2.08-6.61,7.91,7.91,0,0,0-7.17-1.91V0A11.47,11.47,0,0,1,79.19,11.47H76.91" transform="translate(0 0)"/><path class="cls-19" d="M77.08,11.47c1.1-5.91-3.28-10.14-9.36-9V0A11.47,11.47,0,0,1,79.19,11.47H77.08" transform="translate(0 0)"/><path class="cls-20" d="M77.28,11.47s0-.11,0-.16A7.56,7.56,0,0,0,75.17,4c-1-1-3.41-2.58-7.45-1.76V0A11.47,11.47,0,0,1,79.19,11.47H77.28" transform="translate(0 0)"/><path class="cls-21" d="M77.51,11.47s0-.06,0-.08a7.59,7.59,0,0,0-2.16-7.57C74,2.54,71.63,1.2,67.72,2.07V0A11.47,11.47,0,0,1,79.19,11.47H77.51" transform="translate(0 0)"/><path class="cls-22" d="M77.77,11.47c0-.06,0-.16.06-.23a7.77,7.77,0,0,0-2.26-7.62c-2-1.95-4.69-2.54-7.85-1.76V0A11.47,11.47,0,0,1,79.19,11.47H77.77" transform="translate(0 0)"/><path class="cls-23" d="M78.07,11.47s0-.1,0-.13a8,8,0,0,0-2.38-7.88,7.86,7.86,0,0,0-8-1.85V0A11.47,11.47,0,0,1,79.19,11.47H78.07" transform="translate(0 0)"/><path class="cls-24" d="M78.4,11.47s0-.08,0-.12c1.08-4.21-2-7.39-2.61-8a7.58,7.58,0,0,0-8.1-2.06V0A11.47,11.47,0,0,1,79.19,11.47H78.4" transform="translate(0 0)"/><path class="cls-25" d="M73.67,1.66a6.78,6.78,0,0,0-6-.69V0a11.46,11.46,0,0,1,6,1.71l-.08-.05" transform="translate(0 0)"/><path class="cls-46" d="M75.4,10.68c-.93-4-2.83-5.49-5.79-6.72a6.87,6.87,0,0,1,5.83,6.88l0-.16" transform="translate(0 0)"/><path class="cls-26" d="M71.39.6a6,6,0,0,0-3.67,0V0a11.4,11.4,0,0,1,3.93.69L71.39.6" transform="translate(0 0)"/><path class="cls-25" d="M78.74,11.47s0-.08,0-.11a7.06,7.06,0,0,0-.42-4.23,11.34,11.34,0,0,1,.85,4.34h-.45" transform="translate(0 0)"/><path class="cls-47" d="M75.35,10.29A8.59,8.59,0,0,0,70,4.05a6.77,6.77,0,0,1,5.45,6.44,1.46,1.46,0,0,0-.05-.2" transform="translate(0 0)"/><path class="cls-48" d="M75.28,9.91a8.75,8.75,0,0,0-5-5.75,6.67,6.67,0,0,1,5.06,6l-.07-.23" transform="translate(0 0)"/><path class="cls-49" d="M75.2,9.54a8.75,8.75,0,0,0-4.57-5.25,6.59,6.59,0,0,1,4.65,5.48,2.09,2.09,0,0,1-.08-.23" transform="translate(0 0)"/><path class="cls-50" d="M75.1,9.17A8.83,8.83,0,0,0,71,4.45a6.39,6.39,0,0,1,4.19,4.94c0-.07-.06-.15-.08-.22" transform="translate(0 0)"/><path class="cls-37" d="M75.19,11.47A7.48,7.48,0,0,0,67.72,4V3.87h.33c1.44-.31,7.2,2,7.23,7.6h-.09" transform="translate(0 0)"/><path class="cls-27" d="M69.64.16a5.59,5.59,0,0,0-1.92.07V0a11.7,11.7,0,0,1,2.15.2l-.23,0" transform="translate(0 0)"/><path class="cls-51" d="M75,8.81a8.88,8.88,0,0,0-3.61-4.17A6.2,6.2,0,0,1,75.06,9c0-.05,0-.12-.08-.17" transform="translate(0 0)"/><path class="cls-38" d="M75.19,11.47A7.48,7.48,0,0,0,67.72,4V3.89h.39a7.73,7.73,0,0,1,7.16,7.58h-.08" transform="translate(0 0)"/><path class="cls-26" d="M79,11.47s0-.05,0-.07a6.64,6.64,0,0,0,0-2,12.26,12.26,0,0,1,.19,2.11H79" transform="translate(0 0)"/><path class="cls-39" d="M75.19,11.47A7.48,7.48,0,0,0,67.72,4V3.91h.39a7.6,7.6,0,0,1,7.14,7.55h-.06" transform="translate(0 0)"/><path class="cls-52" d="M74.85,8.46a9,9,0,0,0-3.07-3.59,6,6,0,0,1,3.11,3.68l0-.09" transform="translate(0 0)"/><path class="cls-40" d="M75.19,11.47A7.48,7.48,0,0,0,67.72,4V3.94h.39a7.58,7.58,0,0,1,7.13,7.53h0" transform="translate(0 0)"/><path class="cls-41" d="M75.19,11.47A7.48,7.48,0,0,0,67.72,4V4h.39a7.54,7.54,0,0,1,7.11,7.51h0" transform="translate(0 0)"/><path class="cls-53" d="M74.52,7.78a9,9,0,0,0-2.27-2.59A6.09,6.09,0,0,1,74.67,8c0-.07-.1-.18-.15-.26" transform="translate(0 0)"/><path class="cls-5" d="M75.19,11.47A7.48,7.48,0,0,0,67.72,4h.39a7.48,7.48,0,0,1,7.09,7.48h0" transform="translate(0 0)"/><path class="cls-53" d="M74.14,7.14a9.3,9.3,0,0,0-1.27-1.45,5.78,5.78,0,0,1,1.4,1.65l-.13-.2" transform="translate(0 0)"/><path class="cls-28" d="M67.94,0h0" transform="translate(0 0)"/><path class="cls-27" d="M79.19,11.47c0-.06,0-.17,0-.25v.25h0" transform="translate(0 0)"/></g></g></g><path class="cls-54" d="M67.72,4a7.48,7.48,0,0,1,7.47,7.47V146.92a7.48,7.48,0,0,1-7.47,7.46H11.46A7.47,7.47,0,0,1,4,146.92V11.47A7.47,7.47,0,0,1,11.46,4Z" transform="translate(0 0)"/><g class="cls-2"><g class="cls-55"><g class="cls-2"><path class="cls-37" d="M4,11.47H0A11.47,11.47,0,0,1,11.46,0V4A7.47,7.47,0,0,0,4,11.47" transform="translate(0 0)"/><path class="cls-37" d="M11.46,3.71h0s-.06,0-.08,0a.11.11,0,0,0,0,.13s.07,0,.1,0V4A7.47,7.47,0,0,0,4,11.47H0A11.47,11.47,0,0,1,11.46,0V3.71" transform="translate(0 0)"/><path class="cls-38" d="M11.46,3.68h0c-.08,0-.22,0-.29,0a.14.14,0,0,0,0,.14c.06.07.22,0,.31,0V4A7.47,7.47,0,0,0,4,11.47H0A11.47,11.47,0,0,1,11.46,0V3.68" transform="translate(0 0)"/><path class="cls-39" d="M11.46,3.65c-.57.1-.57.1-.75.25.22,0,.53,0,.75,0V4A7.47,7.47,0,0,0,4,11.47H0A11.47,11.47,0,0,1,11.46,0V3.65" transform="translate(0 0)"/><path class="cls-40" d="M11.46,3.63A3.48,3.48,0,0,0,10.1,4a7.46,7.46,0,0,1,1.36,0V4A7.47,7.47,0,0,0,4,11.47H0A11.47,11.47,0,0,1,11.46,0V3.63" transform="translate(0 0)"/><path class="cls-41" d="M11.46,3.6a5,5,0,0,0-2,.52,8.87,8.87,0,0,1,2-.16A7.53,7.53,0,0,0,4,11.47H0A11.47,11.47,0,0,1,11.46,0V3.6" transform="translate(0 0)"/><path class="cls-5" d="M11.46,3.56a6.49,6.49,0,0,0-2.6.76A10,10,0,0,1,11.46,4,7.5,7.5,0,0,0,4,11.47H0A11.47,11.47,0,0,1,11.46,0V3.56" transform="translate(0 0)"/><path class="cls-6" d="M11.46,3.53A7,7,0,0,0,8.21,4.59s0,.06,0,.07A16.65,16.65,0,0,0,5.27,7.29,7.44,7.44,0,0,0,4,11.47H0A11.47,11.47,0,0,1,11.46,0V3.53" transform="translate(0 0)"/><path class="cls-7" d="M11.46,3.5a8.28,8.28,0,0,0-7.48,8H0A11.47,11.47,0,0,1,11.46,0V3.5" transform="translate(0 0)"/><path class="cls-8" d="M11.46,3.47a8.29,8.29,0,0,0-7.5,8H0A11.47,11.47,0,0,1,11.46,0V3.47" transform="translate(0 0)"/><path class="cls-9" d="M11.46,3.42a8.3,8.3,0,0,0-7.52,8.05H0A11.47,11.47,0,0,1,11.46,0V3.42" transform="translate(0 0)"/><path class="cls-10" d="M11.46,3.37a8.28,8.28,0,0,0-7.53,8.1H0A11.47,11.47,0,0,1,11.46,0V3.37" transform="translate(0 0)"/><path class="cls-11" d="M11.46,3.31h0a8.3,8.3,0,0,0-7.55,8.16H0A11.47,11.47,0,0,1,11.46,0V3.31" transform="translate(0 0)"/><path class="cls-12" d="M11.46,3.23a8.45,8.45,0,0,0-7.57,8.24H0A11.47,11.47,0,0,1,11.46,0V3.23" transform="translate(0 0)"/><path class="cls-13" d="M11.46,3.14a8.54,8.54,0,0,0-7.59,8.33H0A11.47,11.47,0,0,1,11.46,0V3.14" transform="translate(0 0)"/><path class="cls-14" d="M11.46,3a8.61,8.61,0,0,0-7.61,8.43H0A11.47,11.47,0,0,1,11.46,0V3" transform="translate(0 0)"/><path class="cls-15" d="M11.46,2.93c-5.13.89-7.72,5-7.64,8.54H0A11.47,11.47,0,0,1,11.46,0V2.93" transform="translate(0 0)"/><path class="cls-16" d="M11.46,2.82c-4.52.82-7.75,4.46-7.67,8.65H0A11.47,11.47,0,0,1,11.46,0V2.82" transform="translate(0 0)"/><path class="cls-17" d="M11.46,2.7a9.09,9.09,0,0,0-7.7,8.77H0A11.47,11.47,0,0,1,11.46,0V2.7" transform="translate(0 0)"/><path class="cls-18" d="M11.46,2.57c-4.57.93-7.82,4.67-7.73,8.9H0A11.47,11.47,0,0,1,11.46,0V2.57" transform="translate(0 0)"/><path class="cls-19" d="M11.46,2.42C6.87,3.4,3.6,7.2,3.69,11.47H0A11.47,11.47,0,0,1,11.46,0V2.42" transform="translate(0 0)"/><path class="cls-20" d="M11.46,2.26c-4.67,1.1-7.88,4.89-7.81,9.21H0A11.47,11.47,0,0,1,11.46,0V2.26" transform="translate(0 0)"/><path class="cls-21" d="M11.46,2.07c-4,1-7.91,4.29-7.85,9.4H0A11.47,11.47,0,0,1,11.46,0V2.07" transform="translate(0 0)"/><path class="cls-22" d="M11.46,1.86h0c-4.81,1.37-8,5.23-7.9,9.61H0A11.47,11.47,0,0,1,11.46,0V1.86" transform="translate(0 0)"/><path class="cls-23" d="M11.46,1.6c-4,1.22-8,4.74-8,9.87H0A11.47,11.47,0,0,1,11.46,0V1.6" transform="translate(0 0)"/><path class="cls-24" d="M11.46,1.31h0c-4,1.28-8.15,5-8,10.16H0A11.47,11.47,0,0,1,11.46,0V1.31" transform="translate(0 0)"/><path class="cls-25" d="M11.46,1c-2.3.76-8.24,4.14-8.07,10.5H0A11.47,11.47,0,0,1,11.46,0V1" transform="translate(0 0)"/><path class="cls-26" d="M11.46.59C8.48,1.51,3,5.65,3.32,11.47H0A11.47,11.47,0,0,1,11.46,0V.59" transform="translate(0 0)"/><path class="cls-27" d="M11.46.23C8.56.9,3,5.48,3.24,11.47H0A11.47,11.47,0,0,1,11.46,0V.23" transform="translate(0 0)"/><path class="cls-28" d="M11.46,0C7.77.26,2.89,6.08,3.15,11.47H0A11.47,11.47,0,0,1,11.46,0h0" transform="translate(0 0)"/><path class="cls-29" d="M9.89.11C6.81.62,2.74,6.58,3,11.47H0A11.48,11.48,0,0,1,10.06.08h0l-.17,0" transform="translate(0 0)"/><path class="cls-30" d="M7.87.58c-2.44.88-5.32,6.32-5,10.89H0a11.48,11.48,0,0,1,8-11H8L7.87.58" transform="translate(0 0)"/></g></g></g></g></svg>