<svg id="Layer_1" data-name="Layer 1" xmlns="http://www.w3.org/2000/svg" xmlns:xlink="http://www.w3.org/1999/xlink" viewBox="0 0 158.38 79.19"><defs><style>.cls-1{fill:none;}.cls-2{isolation:isolate;}.cls-3{fill:#8e8a6d;}.cls-4{clip-path:url(#clip-path);}.cls-5{fill:#fffacc;}.cls-6{fill:#fff9c5;}.cls-7{fill:#faf4c1;}.cls-8{fill:#f5efbd;}.cls-9{fill:#f0eab9;}.cls-10{fill:#ebe5b5;}.cls-11{fill:#e6e0b1;}.cls-12{fill:#e0dbad;}.cls-13{fill:#dbd6a9;}.cls-14{fill:#d6d1a5;}.cls-15{fill:#d1cca2;}.cls-16{fill:#ccc79e;}.cls-17{fill:#c7c29a;}.cls-18{fill:#c2bd96;}.cls-19{fill:#bdb892;}.cls-20{fill:#b8b38e;}.cls-21{fill:#b3ae8a;}.cls-22{fill:#ada986;}.cls-23{fill:#a8a482;}.cls-24{fill:#a39f7e;}.cls-25{fill:#9e9a7a;}.cls-26{fill:#999576;}.cls-27{fill:#949072;}.cls-28{fill:#8f8b6e;}.cls-29{fill:#8a866a;}.cls-30{fill:#858166;}.cls-31{clip-path:url(#clip-path-2);}.cls-32{clip-path:url(#clip-path-3);}.cls-33{fill:#fffbdb;}.cls-34{fill:#fffbda;}.cls-35{fill:#fffbd9;}.cls-36{fill:#fffbd7;}.cls-37{fill:#fffbd6;}.cls-38{fill:#fffbd5;}.cls-39{fill:#fffad3;}.cls-40{fill:#fffad1;}.cls-41{fill:#fffacf;}.cls-42{clip-path:url(#clip-path-4);}.cls-43{clip-path:url(#clip-path-5);}.cls-44{clip-path:url(#clip-path-6);}.cls-45{clip-path:url(#clip-path-7);}.cls-46{fill:#ddd8ab;}.cls-47{clip-path:url(#clip-path-8);}.cls-48{fill:#fffbdc;}.cls-49{fill:#fffbdd;}.cls-50{fill:#fffcde;}.cls-51{fill:#fffcdf;}.cls-52{fill:#fffce0;}.cls-53{fill:#fffce1;}.cls-54{fill:#fffce2;}.cls-55{fill:#fffce3;}</style><clipPath id="clip-path" transform="translate(0 0)"><path class="cls-1" d="M146.92,75.19v4H11.47v-4Z"/></clipPath><clipPath id="clip-path-2" transform="translate(0 0)"><path class="cls-1" d="M11.47,75.19v4A11.46,11.46,0,0,1,0,67.72H4A7.47,7.47,0,0,0,11.47,75.19Z"/></clipPath><clipPath id="clip-path-3" transform="translate(0 0)"><path class="cls-1" d="M154.38,67.72h4a11.47,11.47,0,0,1-11.46,11.47v-4A7.46,7.46,0,0,0,154.38,67.72Z"/></clipPath><clipPath id="clip-path-4" transform="translate(0 0)"><path class="cls-1" d="M4,67.72H0V11.47H4Z"/></clipPath><clipPath id="clip-path-5" transform="translate(0 0)"><path class="cls-1" d="M154.38,11.47h4V67.72h-4Z"/></clipPath><clipPath id="clip-path-6" transform="translate(0 0)"><path class="cls-1" d="M11.47,4V0H146.92V4Z"/></clipPath><clipPath id="clip-path-7" transform="translate(0 0)"><path class="cls-1" d="M4,11.47H0A11.46,11.46,0,0,1,11.47,0V4A7.47,7.47,0,0,0,4,11.47Z"/></clipPath><clipPath id="clip-path-8" transform="translate(0 0)"><path class="cls-1" d="M146.92,4V0a11.47,11.47,0,0,1,11.46,11.47h-4A7.47,7.47,0,0,0,146.92,4Z"/></clipPath></defs><title>back-tilt90</title><g class="cls-2"><rect class="cls-3" x="11.47" width="135.45"/><g class="cls-2"><g class="cls-4"><g class="cls-2"><polyline class="cls-5" points="11.47 75.19 146.92 75.19 146.92 75.19 11.47 75.19 11.47 75.19"/><path class="cls-6" d="M11.47,75.2H146.92v0H11.47v0" transform="translate(0 0)"/><path class="cls-7" d="M11.47,75.22H146.92v0H11.47v0" transform="translate(0 0)"/><path class="cls-8" d="M11.47,75.25H146.92v0H11.47v0" transform="translate(0 0)"/><path class="cls-9" d="M11.47,75.27H146.92v0H11.47v0" transform="translate(0 0)"/><path class="cls-10" d="M11.47,75.3H146.92v0H11.47v0" transform="translate(0 0)"/><path class="cls-11" d="M11.47,75.32H146.92v0H11.47v0" transform="translate(0 0)"/><path class="cls-12" d="M11.47,75.35H146.92v0H11.47v0" transform="translate(0 0)"/><path class="cls-13" d="M11.47,75.38H146.92v0H11.47v0" transform="translate(0 0)"/><path class="cls-14" d="M11.47,75.4H146.92v0H11.47v0" transform="translate(0 0)"/><path class="cls-15" d="M11.47,75.43H146.92v0H11.47v0" transform="translate(0 0)"/><path class="cls-16" d="M11.47,75.45H146.92v0H11.47v0" transform="translate(0 0)"/><path class="cls-17" d="M11.47,75.48H146.92v0H11.47v0" transform="translate(0 0)"/><path class="cls-18" d="M11.47,75.5H146.92v0H11.47v0" transform="translate(0 0)"/><path class="cls-19" d="M11.47,75.53H146.92v.06H11.47v-.06" transform="translate(0 0)"/><path class="cls-20" d="M11.47,75.59H146.92v0H11.47v0" transform="translate(0 0)"/><path class="cls-21" d="M11.47,75.64H146.92v0H11.47v0" transform="translate(0 0)"/><path class="cls-22" d="M11.47,75.69H146.92v.06H11.47v-.06" transform="translate(0 0)"/><path class="cls-23" d="M11.47,75.75H146.92v0H11.47v0" transform="translate(0 0)"/><path class="cls-24" d="M11.47,75.8H146.92v.06H11.47V75.8" transform="translate(0 0)"/><path class="cls-25" d="M11.47,75.86H146.92V76H11.47v-.09" transform="translate(0 0)"/><path class="cls-26" d="M11.47,76H146.92V76H11.47V76" transform="translate(0 0)"/><path class="cls-27" d="M11.47,76H146.92v.09H11.47V76" transform="translate(0 0)"/><path class="cls-28" d="M11.47,76.13H146.92v.16H11.47v-.16" transform="translate(0 0)"/><path class="cls-29" d="M11.47,76.29H146.92v.19H11.47v-.19" transform="translate(0 0)"/><path class="cls-30" d="M11.47,76.48H146.92v2.71H11.47V76.48" transform="translate(0 0)"/></g></g></g><g class="cls-2"><g class="cls-31"><g class="cls-2"><path class="cls-6" d="M11.47,75.19v4A11.46,11.46,0,0,1,0,67.72H4a7.47,7.47,0,0,0,7.47,7.47" transform="translate(0 0)"/><path class="cls-6" d="M4,67.72a7.48,7.48,0,0,0,7.47,7.48v4A11.46,11.46,0,0,1,0,67.72H4" transform="translate(0 0)"/><path class="cls-7" d="M4,67.72a7.48,7.48,0,0,0,7.49,7.5v4A11.46,11.46,0,0,1,0,67.72H4" transform="translate(0 0)"/><path class="cls-8" d="M4,67.72a7.56,7.56,0,0,0,7.51,7.52v4A11.46,11.46,0,0,1,0,67.72H4" transform="translate(0 0)"/><path class="cls-9" d="M4,67.72a7.53,7.53,0,0,0,7.52,7.53v3.94A11.46,11.46,0,0,1,0,67.72H4" transform="translate(0 0)"/><path class="cls-10" d="M3.93,67.72a7.52,7.52,0,0,0,7.54,7.55v3.92A11.46,11.46,0,0,1,0,67.72H3.93" transform="translate(0 0)"/><path class="cls-11" d="M3.91,67.72a7.6,7.6,0,0,0,7.56,7.57v3.9A11.46,11.46,0,0,1,0,67.72H3.91" transform="translate(0 0)"/><path class="cls-12" d="M3.89,67.72a7.6,7.6,0,0,0,7.58,7.59v3.88A11.46,11.46,0,0,1,0,67.72H3.89" transform="translate(0 0)"/><path class="cls-13" d="M3.88,67.72a7.64,7.64,0,0,0,7.59,7.61v3.86A11.46,11.46,0,0,1,0,67.72H3.88" transform="translate(0 0)"/><path class="cls-14" d="M3.85,67.72a7.65,7.65,0,0,0,7.62,7.64v3.83A11.46,11.46,0,0,1,0,67.72H3.85" transform="translate(0 0)"/><path class="cls-15" d="M3.82,67.72a7.74,7.74,0,0,0,7.65,7.67v3.8A11.46,11.46,0,0,1,0,67.72H3.82" transform="translate(0 0)"/><path class="cls-16" d="M3.79,67.72a7.73,7.73,0,0,0,7.68,7.7v3.77A11.46,11.46,0,0,1,0,67.72H3.79" transform="translate(0 0)"/><path class="cls-17" d="M3.76,67.72a7.82,7.82,0,0,0,7.71,7.73v3.74A11.46,11.46,0,0,1,0,67.72H3.76" transform="translate(0 0)"/><path class="cls-18" d="M3.74,67.72a7.81,7.81,0,0,0,7.73,7.77v3.7A11.46,11.46,0,0,1,0,67.72H3.74" transform="translate(0 0)"/><path class="cls-19" d="M3.7,67.72a7.9,7.9,0,0,0,7.77,7.81v3.66A11.46,11.46,0,0,1,0,67.72H3.7" transform="translate(0 0)"/><path class="cls-20" d="M3.65,67.72a8,8,0,0,0,7.82,7.86v3.61A11.46,11.46,0,0,1,0,67.72H3.65" transform="translate(0 0)"/><path class="cls-21" d="M3.61,67.72a8.06,8.06,0,0,0,7.86,7.91v3.56A11.46,11.46,0,0,1,0,67.72H3.61" transform="translate(0 0)"/><path class="cls-22" d="M3.56,67.72a8.15,8.15,0,0,0,7.91,8v3.51A11.46,11.46,0,0,1,0,67.72H3.56" transform="translate(0 0)"/><path class="cls-23" d="M3.51,67.72a8.21,8.21,0,0,0,8,8v3.46A11.46,11.46,0,0,1,0,67.72H3.51" transform="translate(0 0)"/><path class="cls-24" d="M3.46,67.72a8.35,8.35,0,0,0,8,8.08v3.39A11.46,11.46,0,0,1,0,67.72H3.46" transform="translate(0 0)"/><path class="cls-25" d="M3.39,67.72a8.41,8.41,0,0,0,8.08,8.14v3.33A11.46,11.46,0,0,1,0,67.72H3.39" transform="translate(0 0)"/><path class="cls-26" d="M3.33,67.72a8.53,8.53,0,0,0,8.14,8.22v3.25A11.46,11.46,0,0,1,0,67.72H3.33" transform="translate(0 0)"/><path class="cls-27" d="M3.24,67.72A8.62,8.62,0,0,0,11.47,76v3.17A11.46,11.46,0,0,1,0,67.72H3.24" transform="translate(0 0)"/><path class="cls-28" d="M3.15,67.72a8.83,8.83,0,0,0,8.32,8.41v3.06A11.46,11.46,0,0,1,0,67.72H3.15" transform="translate(0 0)"/><path class="cls-29" d="M3,67.72a9,9,0,0,0,8.44,8.54v2.93A11.46,11.46,0,0,1,0,67.72H3" transform="translate(0 0)"/><path class="cls-30" d="M2.85,67.72a9.36,9.36,0,0,0,8.62,8.76v2.71A11.46,11.46,0,0,1,0,67.72H2.85" transform="translate(0 0)"/></g></g></g><g class="cls-2"><g class="cls-32"><g class="cls-2"><path class="cls-33" d="M154.38,67.72h4a11.47,11.47,0,0,1-11.46,11.47v-4a7.46,7.46,0,0,0,7.46-7.47" transform="translate(0 0)"/><path class="cls-33" d="M146.92,75.19a7.46,7.46,0,0,0,7.46-7.47h.24l0,.08v-.08h3.71a11.47,11.47,0,0,1-11.46,11.47v-4" transform="translate(0 0)"/><path class="cls-34" d="M146.92,75.19a7.46,7.46,0,0,0,7.46-7.47h.17l.1.25,0-.25h3.68a11.47,11.47,0,0,1-11.46,11.47v-4" transform="translate(0 0)"/><path class="cls-35" d="M146.92,75.19a7.46,7.46,0,0,0,7.46-7.47h.13a1.25,1.25,0,0,0,.13.4l.09-.4h3.65a11.47,11.47,0,0,1-11.46,11.47v-4" transform="translate(0 0)"/><path class="cls-36" d="M146.92,75.19a7.46,7.46,0,0,0,7.46-7.47h.11a5.08,5.08,0,0,0,.13.78l.14-.78h3.62a11.47,11.47,0,0,1-11.46,11.47v-4" transform="translate(0 0)"/><path class="cls-37" d="M146.92,75.19a7.46,7.46,0,0,0,7.46-7.47h.1a3.94,3.94,0,0,0,.1,1.13c.09-.42.12-.56.2-1.13h3.6a11.47,11.47,0,0,1-11.46,11.47v-4" transform="translate(0 0)"/><path class="cls-38" d="M146.92,75.19a7.46,7.46,0,0,0,7.46-7.47h.08a6.88,6.88,0,0,1,0,1.16c0,.08-.07.19,0,.26s.09.09.12.07a6.6,6.6,0,0,0,.3-1.49h3.57a11.47,11.47,0,0,1-11.46,11.47v-4" transform="translate(0 0)"/><path class="cls-39" d="M146.92,75.19a7.46,7.46,0,0,0,7.46-7.47h.07a8.54,8.54,0,0,1-.19,2c.13-.14.42-.45.58-2h3.54a11.47,11.47,0,0,1-11.46,11.47v-4" transform="translate(0 0)"/><path class="cls-40" d="M146.92,75.19a7.46,7.46,0,0,0,7.46-7.47h.05a8.51,8.51,0,0,1-.36,2.58,4.86,4.86,0,0,0,.79-2.58h3.52a11.47,11.47,0,0,1-11.46,11.47v-4" transform="translate(0 0)"/><path class="cls-41" d="M146.92,75.19a7.46,7.46,0,0,0,7.46-7.47h0a8.83,8.83,0,0,1-.58,3.17,6.16,6.16,0,0,0,1.06-3.17h3.49a11.47,11.47,0,0,1-11.46,11.47v-4" transform="translate(0 0)"/><path class="cls-5" d="M146.92,75.19a7.46,7.46,0,0,0,7.46-7.47h0c0,1.3,0,1.3-.87,3.76a6.8,6.8,0,0,0,1.38-3.76h3.47a11.47,11.47,0,0,1-11.46,11.47v-4" transform="translate(0 0)"/><path class="cls-6" d="M146.92,75.2a8.37,8.37,0,0,0,8-7.48h3.43a11.47,11.47,0,0,1-11.46,11.47v-4" transform="translate(0 0)"/><path class="cls-7" d="M146.92,75.22a8.35,8.35,0,0,0,8.07-7.5h3.39a11.47,11.47,0,0,1-11.46,11.47v-4" transform="translate(0 0)"/><path class="cls-8" d="M146.92,75.24A8.33,8.33,0,0,0,155,67.72h3.35a11.47,11.47,0,0,1-11.46,11.47v-4" transform="translate(0 0)"/><path class="cls-9" d="M146.92,75.25a8.35,8.35,0,0,0,8.16-7.53h3.3a11.47,11.47,0,0,1-11.46,11.47V75.25" transform="translate(0 0)"/><path class="cls-10" d="M146.92,75.27a8.43,8.43,0,0,0,8.23-7.55h3.23a11.47,11.47,0,0,1-11.46,11.47V75.27" transform="translate(0 0)"/><path class="cls-11" d="M146.92,75.29a8.48,8.48,0,0,0,8.32-7.57h3.14a11.47,11.47,0,0,1-11.46,11.47v-3.9" transform="translate(0 0)"/><path class="cls-12" d="M146.92,75.31a8.52,8.52,0,0,0,8.41-7.59h3a11.47,11.47,0,0,1-11.46,11.47V75.31" transform="translate(0 0)"/><path class="cls-13" d="M146.92,75.33a8.69,8.69,0,0,0,8.52-7.61h2.94a11.47,11.47,0,0,1-11.46,11.47V75.33" transform="translate(0 0)"/><path class="cls-14" d="M146.92,75.36a8.87,8.87,0,0,0,8.64-7.64h2.82a11.47,11.47,0,0,1-11.46,11.47V75.36" transform="translate(0 0)"/><path class="cls-15" d="M146.92,75.39a9,9,0,0,0,8.76-7.67h2.7a11.47,11.47,0,0,1-11.46,11.47v-3.8" transform="translate(0 0)"/><path class="cls-16" d="M146.92,75.42a9.09,9.09,0,0,0,8.89-7.7h2.57a11.47,11.47,0,0,1-11.46,11.47V75.42" transform="translate(0 0)"/><path class="cls-17" d="M146.92,75.45a9.31,9.31,0,0,0,9-7.73h2.43a11.47,11.47,0,0,1-11.46,11.47V75.45" transform="translate(0 0)"/><path class="cls-18" d="M146.92,75.49c4.28.12,8.23-3.22,9.19-7.77h2.27a11.47,11.47,0,0,1-11.46,11.47v-3.7" transform="translate(0 0)"/><path class="cls-19" d="M146.92,75.53c4.41.11,8.26-3.11,9.36-7.81h2.1a11.47,11.47,0,0,1-11.46,11.47V75.53" transform="translate(0 0)"/><path class="cls-20" d="M146.92,75.58a9.88,9.88,0,0,0,9.56-7.86h1.9a11.47,11.47,0,0,1-11.46,11.47V75.58" transform="translate(0 0)"/><path class="cls-21" d="M146.92,75.63c4.49.11,8.52-3.14,9.79-7.91h1.67a11.47,11.47,0,0,1-11.46,11.47V75.63" transform="translate(0 0)"/><path class="cls-22" d="M146.92,75.68c5.1.13,8.92-3.91,10.05-8h1.41a11.47,11.47,0,0,1-11.46,11.47V75.68" transform="translate(0 0)"/><path class="cls-23" d="M146.92,75.73c5,.22,9.15-3.9,10.35-8h1.11a11.47,11.47,0,0,1-11.46,11.47V75.73" transform="translate(0 0)"/><path class="cls-24" d="M146.92,75.8c5.64.19,9.71-4.71,10.68-8.08h.78a11.47,11.47,0,0,1-11.46,11.47V75.8" transform="translate(0 0)"/><path class="cls-25" d="M146.92,75.86c5.48.26,10.11-4.56,11-8.14h.44a11.47,11.47,0,0,1-11.46,11.47V75.86" transform="translate(0 0)"/><path class="cls-26" d="M146.92,75.94c5.7.25,10.71-4.73,11.31-8.22h.15a11.47,11.47,0,0,1-11.46,11.47V75.94" transform="translate(0 0)"/><path class="cls-27" d="M146.92,76c4.74.28,11.28-3.77,11.46-8.3a11.47,11.47,0,0,1-11.46,11.47V76" transform="translate(0 0)"/><path class="cls-28" d="M146.92,76.13c4.34.32,10.76-3,11.36-6.9a11.47,11.47,0,0,1-11.36,10V76.13" transform="translate(0 0)"/><path class="cls-29" d="M146.92,76.26c3.56.31,9.89-1.82,11-5.28a11.47,11.47,0,0,1-11,8.21V76.26" transform="translate(0 0)"/><path class="cls-30" d="M146.92,76.47h0c2.84.27,8.69-.68,10.22-3.56a11.45,11.45,0,0,1-10.22,6.28V76.47" transform="translate(0 0)"/></g></g></g><g class="cls-2"><g class="cls-42"><g class="cls-2"><polyline class="cls-5" points="4 11.47 4 67.72 4 67.72 4 11.47 4 11.47"/><path class="cls-6" d="M4,11.47V67.72H4V11.47H4" transform="translate(0 0)"/><path class="cls-7" d="M4,11.47V67.72H4V11.47H4" transform="translate(0 0)"/><path class="cls-8" d="M4,11.47V67.72h0V11.47H4" transform="translate(0 0)"/><path class="cls-9" d="M3.93,11.47V67.72h0V11.47h0" transform="translate(0 0)"/><path class="cls-10" d="M3.9,11.47V67.72h0V11.47h0" transform="translate(0 0)"/><path class="cls-11" d="M3.88,11.47V67.72h0V11.47h0" transform="translate(0 0)"/><path class="cls-12" d="M3.85,11.47V67.72h0V11.47h0" transform="translate(0 0)"/><path class="cls-13" d="M3.83,11.47V67.72h0V11.47h0" transform="translate(0 0)"/><path class="cls-14" d="M3.81,11.47V67.72h0V11.47h0" transform="translate(0 0)"/><path class="cls-15" d="M3.78,11.47V67.72h0V11.47h0" transform="translate(0 0)"/><path class="cls-16" d="M3.76,11.47V67.72h0V11.47h0" transform="translate(0 0)"/><path class="cls-17" d="M3.74,11.47V67.72h0V11.47h0" transform="translate(0 0)"/><path class="cls-18" d="M3.71,11.47V67.72h0V11.47h0" transform="translate(0 0)"/><path class="cls-19" d="M3.69,11.47V67.72h0V11.47h0" transform="translate(0 0)"/><path class="cls-20" d="M3.65,11.47V67.72h0V11.47h0" transform="translate(0 0)"/><path class="cls-21" d="M3.6,11.47V67.72H3.55V11.47H3.6" transform="translate(0 0)"/><path class="cls-22" d="M3.55,11.47V67.72H3.49V11.47h.06" transform="translate(0 0)"/><path class="cls-23" d="M3.49,11.47V67.72H3.44V11.47h.05" transform="translate(0 0)"/><path class="cls-24" d="M3.44,11.47V67.72h0V11.47h0" transform="translate(0 0)"/><path class="cls-25" d="M3.39,11.47V67.72H3.32V11.47h.07" transform="translate(0 0)"/><path class="cls-26" d="M3.32,11.47V67.72h-.1V11.47h.1" transform="translate(0 0)"/><path class="cls-27" d="M3.22,11.47V67.72H3.13V11.47h.09" transform="translate(0 0)"/><path class="cls-28" d="M3.13,11.47V67.72H3V11.47h.1" transform="translate(0 0)"/><path class="cls-29" d="M3,11.47V67.72H2.82V11.47H3" transform="translate(0 0)"/><path class="cls-30" d="M2.82,11.47V67.72H0V11.47H2.82" transform="translate(0 0)"/></g></g></g><g class="cls-2"><g class="cls-43"><g class="cls-2"><path class="cls-5" d="M154.38,67.72V11.47h0V67.72h0" transform="translate(0 0)"/><path class="cls-41" d="M154.42,67.72V11.47h0V67.72h0" transform="translate(0 0)"/><path class="cls-40" d="M154.45,67.72V11.47h0V67.72h0" transform="translate(0 0)"/><path class="cls-39" d="M154.49,67.72V11.47h0V67.72h0" transform="translate(0 0)"/><path class="cls-38" d="M154.53,67.72V11.47h0V67.72h0" transform="translate(0 0)"/><path class="cls-37" d="M154.57,67.72V11.47h0V67.72h0" transform="translate(0 0)"/><path class="cls-36" d="M154.6,67.72V11.47h0V67.72h0" transform="translate(0 0)"/><path class="cls-35" d="M154.64,67.72V11.47h0V67.72h0" transform="translate(0 0)"/><path class="cls-34" d="M154.68,67.72V11.47h.06V67.72h-.06" transform="translate(0 0)"/><path class="cls-35" d="M154.74,67.72V11.47h0V67.72h0" transform="translate(0 0)"/><path class="cls-36" d="M154.77,67.72V11.47h0V67.72h0" transform="translate(0 0)"/><path class="cls-37" d="M154.8,67.72V11.47h0V67.72h0" transform="translate(0 0)"/><path class="cls-38" d="M154.83,67.72V11.47h0V67.72h0" transform="translate(0 0)"/><path class="cls-39" d="M154.86,67.72V11.47h0V67.72h0" transform="translate(0 0)"/><path class="cls-40" d="M154.88,67.72V11.47h0V67.72h0" transform="translate(0 0)"/><path class="cls-41" d="M154.91,67.72V11.47h0V67.72h0" transform="translate(0 0)"/><path class="cls-5" d="M154.94,67.72V11.47h0V67.72h0" transform="translate(0 0)"/><path class="cls-6" d="M155,67.72V11.47h0V67.72h0" transform="translate(0 0)"/><path class="cls-7" d="M155,67.72V11.47h0V67.72h0" transform="translate(0 0)"/><path class="cls-8" d="M155,67.72V11.47h.07V67.72H155" transform="translate(0 0)"/><path class="cls-9" d="M155.1,67.72V11.47h.08V67.72h-.08" transform="translate(0 0)"/><path class="cls-10" d="M155.18,67.72V11.47h.08V67.72h-.08" transform="translate(0 0)"/><path class="cls-11" d="M155.26,67.72V11.47h.08V67.72h-.08" transform="translate(0 0)"/><path class="cls-12" d="M155.34,67.72V11.47h.11V67.72h-.11" transform="translate(0 0)"/><path class="cls-13" d="M155.45,67.72V11.47h.11V67.72h-.11" transform="translate(0 0)"/><path class="cls-14" d="M155.56,67.72V11.47h.12V67.72h-.12" transform="translate(0 0)"/><path class="cls-15" d="M155.68,67.72V11.47h.13V67.72h-.13" transform="translate(0 0)"/><path class="cls-16" d="M155.81,67.72V11.47H156V67.72h-.14" transform="translate(0 0)"/><path class="cls-17" d="M156,67.72V11.47h.16V67.72H156" transform="translate(0 0)"/><path class="cls-18" d="M156.11,67.72V11.47h.18V67.72h-.18" transform="translate(0 0)"/><path class="cls-19" d="M156.29,67.72V11.47h.19V67.72h-.19" transform="translate(0 0)"/><path class="cls-20" d="M156.48,67.72V11.47h.23V67.72h-.23" transform="translate(0 0)"/><path class="cls-21" d="M156.71,67.72V11.47H157V67.72h-.26" transform="translate(0 0)"/><path class="cls-22" d="M157,67.72V11.47h.3V67.72H157" transform="translate(0 0)"/><path class="cls-23" d="M157.27,67.72V11.47h.33V67.72h-.33" transform="translate(0 0)"/><path class="cls-24" d="M157.6,67.72V11.47h.34V67.72h-.34" transform="translate(0 0)"/><path class="cls-25" d="M157.94,67.72V11.47h.29V67.72h-.29" transform="translate(0 0)"/><path class="cls-26" d="M158.23,67.72V11.47h.15V67.72h-.15" transform="translate(0 0)"/><polyline class="cls-27" points="158.38 67.72 158.38 11.47 158.38 11.47 158.38 67.72 158.38 67.72"/></g></g></g><g class="cls-2"><g class="cls-44"><g class="cls-2"><path class="cls-5" d="M146.92,4H11.47V3.94H146.92V4" transform="translate(0 0)"/><path class="cls-41" d="M146.92,3.94H11.47V3.87H146.92v.07" transform="translate(0 0)"/><path class="cls-40" d="M146.92,3.87H11.47V3.8H146.92v.07" transform="translate(0 0)"/><path class="cls-39" d="M146.92,3.8H11.47V3.73H146.92V3.8" transform="translate(0 0)"/><path class="cls-38" d="M146.92,3.73H11.47V3.65H146.92v.08" transform="translate(0 0)"/><path class="cls-39" d="M146.92,3.65H11.47v0H146.92v0" transform="translate(0 0)"/><path class="cls-40" d="M146.92,3.61H11.47v0H146.92v0" transform="translate(0 0)"/><path class="cls-41" d="M146.92,3.58H11.47v0H146.92v0" transform="translate(0 0)"/><path class="cls-5" d="M146.92,3.54H11.47v0H146.92v0" transform="translate(0 0)"/><path class="cls-6" d="M146.92,3.51H11.47v0H146.92v0" transform="translate(0 0)"/><path class="cls-7" d="M146.92,3.47H11.47v0H146.92v0" transform="translate(0 0)"/><path class="cls-8" d="M146.92,3.44H11.47v0H146.92v0" transform="translate(0 0)"/><path class="cls-9" d="M146.92,3.4H11.47v0H146.92v0" transform="translate(0 0)"/><path class="cls-10" d="M146.92,3.37H11.47V3.31H146.92v.06" transform="translate(0 0)"/><path class="cls-11" d="M146.92,3.31H11.47V3.22H146.92v.09" transform="translate(0 0)"/><path class="cls-12" d="M146.92,3.22H11.47V3.13H146.92v.09" transform="translate(0 0)"/><path class="cls-13" d="M146.92,3.13H11.47V3H146.92v.09" transform="translate(0 0)"/><path class="cls-14" d="M146.92,3H11.47V2.93H146.92V3" transform="translate(0 0)"/><path class="cls-15" d="M146.92,2.93H11.47V2.82H146.92v.11" transform="translate(0 0)"/><path class="cls-16" d="M146.92,2.82H11.47V2.7H146.92v.12" transform="translate(0 0)"/><path class="cls-17" d="M146.92,2.7H11.47V2.57H146.92V2.7" transform="translate(0 0)"/><path class="cls-18" d="M146.92,2.57H11.47V2.43H146.92v.14" transform="translate(0 0)"/><path class="cls-19" d="M146.92,2.43H11.47V2.26H146.92v.17" transform="translate(0 0)"/><path class="cls-20" d="M146.92,2.26H11.47V2.07H146.92v.19" transform="translate(0 0)"/><path class="cls-21" d="M146.92,2.07H11.47V1.86H146.92v.21" transform="translate(0 0)"/><path class="cls-22" d="M146.92,1.86H11.47V1.61H146.92v.25" transform="translate(0 0)"/><path class="cls-23" d="M146.92,1.61H11.47v-.3H146.92v.3" transform="translate(0 0)"/><path class="cls-24" d="M146.92,1.31H11.47V1H146.92v.34" transform="translate(0 0)"/><path class="cls-25" d="M146.92,1H11.47V.59H146.92V1" transform="translate(0 0)"/><path class="cls-26" d="M146.92.59H11.47V.23H146.92V.59" transform="translate(0 0)"/><path class="cls-27" d="M146.92.23H11.47V0H146.92V.23" transform="translate(0 0)"/><path class="cls-28" d="M146.92,0h0" transform="translate(0 0)"/></g></g></g><g class="cls-2"><g class="cls-45"><g class="cls-2"><path class="cls-37" d="M4,11.47H0A11.46,11.46,0,0,1,11.47,0V4A7.47,7.47,0,0,0,4,11.47" transform="translate(0 0)"/><path class="cls-37" d="M11.47,3.72s-.07,0-.09,0a.14.14,0,0,0,0,.14s.08,0,.11,0V4A7.47,7.47,0,0,0,4,11.47H0A11.46,11.46,0,0,1,11.47,0V3.72" transform="translate(0 0)"/><path class="cls-38" d="M11.47,3.69c-.09,0-.23,0-.29.05a.13.13,0,0,0,0,.13c.06.08.22,0,.32,0V4A7.47,7.47,0,0,0,4,11.47H0A11.46,11.46,0,0,1,11.47,0V3.69" transform="translate(0 0)"/><path class="cls-39" d="M11.47,3.66c-.58.09-.58.09-.77.24l.77,0V4A7.47,7.47,0,0,0,4,11.47H0A11.46,11.46,0,0,1,11.47,0V3.66" transform="translate(0 0)"/><path class="cls-40" d="M11.47,3.63A3.76,3.76,0,0,0,10.09,4a8,8,0,0,1,1.38-.05V4A7.47,7.47,0,0,0,4,11.47H0A11.46,11.46,0,0,1,11.47,0V3.63" transform="translate(0 0)"/><path class="cls-41" d="M11.47,3.6a5.14,5.14,0,0,0-2,.53,9.89,9.89,0,0,1,2-.17A7.53,7.53,0,0,0,4,11.47H0A11.46,11.46,0,0,1,11.47,0V3.6" transform="translate(0 0)"/><path class="cls-5" d="M11.47,3.57a6.39,6.39,0,0,0-2.62.76A10.87,10.87,0,0,1,11.47,4,7.5,7.5,0,0,0,4,11.47H0A11.46,11.46,0,0,1,11.47,0V3.57" transform="translate(0 0)"/><path class="cls-6" d="M11.47,3.54A6.8,6.8,0,0,0,8.2,4.6s0,.05,0,.06A17,17,0,0,0,5.27,7.29,7.61,7.61,0,0,0,4,11.47H0A11.46,11.46,0,0,1,11.47,0V3.54" transform="translate(0 0)"/><path class="cls-7" d="M11.47,3.5a8.29,8.29,0,0,0-7.49,8H0A11.46,11.46,0,0,1,11.47,0V3.5" transform="translate(0 0)"/><path class="cls-8" d="M11.47,3.47a8.3,8.3,0,0,0-7.51,8H0A11.46,11.46,0,0,1,11.47,0V3.47" transform="translate(0 0)"/><path class="cls-9" d="M11.47,3.43a8.29,8.29,0,0,0-7.52,8H0A11.46,11.46,0,0,1,11.47,0V3.43" transform="translate(0 0)"/><path class="cls-10" d="M11.47,3.37a8.3,8.3,0,0,0-7.54,8.1H0A11.46,11.46,0,0,1,11.47,0V3.37" transform="translate(0 0)"/><path class="cls-11" d="M11.47,3.31a8.31,8.31,0,0,0-7.56,8.16H0A11.46,11.46,0,0,1,11.47,0V3.31" transform="translate(0 0)"/><path class="cls-12" d="M11.47,3.23a8.47,8.47,0,0,0-7.58,8.24H0A11.46,11.46,0,0,1,11.47,0V3.23" transform="translate(0 0)"/><path class="cls-13" d="M11.47,3.14a8.54,8.54,0,0,0-7.59,8.33H0A11.46,11.46,0,0,1,11.47,0V3.14" transform="translate(0 0)"/><path class="cls-14" d="M11.47,3a8.62,8.62,0,0,0-7.62,8.43H0A11.46,11.46,0,0,1,11.47,0V3" transform="translate(0 0)"/><path class="cls-15" d="M11.47,2.94a8.72,8.72,0,0,0-7.65,8.53H0A11.46,11.46,0,0,1,11.47,0V2.94" transform="translate(0 0)"/><path class="cls-16" d="M11.47,2.83c-4.53.81-7.75,4.45-7.68,8.64H0A11.46,11.46,0,0,1,11.47,0V2.83" transform="translate(0 0)"/><path class="cls-17" d="M11.47,2.7c-4.6.89-7.76,4.49-7.7,8.77H0A11.46,11.46,0,0,1,11.47,0V2.7" transform="translate(0 0)"/><path class="cls-18" d="M11.47,2.57c-4.58.93-7.83,4.67-7.73,8.9H0A11.46,11.46,0,0,1,11.47,0V2.57" transform="translate(0 0)"/><path class="cls-19" d="M11.47,2.43c-4.59,1-7.86,4.77-7.77,9H0A11.46,11.46,0,0,1,11.47,0V2.43" transform="translate(0 0)"/><path class="cls-20" d="M11.47,2.26h0C6.8,3.36,3.58,7.15,3.65,11.47H0A11.46,11.46,0,0,1,11.47,0V2.26" transform="translate(0 0)"/><path class="cls-21" d="M11.47,2.08c-4,1-7.92,4.27-7.86,9.39H0A11.46,11.46,0,0,1,11.47,0V2.08" transform="translate(0 0)"/><path class="cls-22" d="M11.47,1.86c-4.81,1.37-8,5.23-7.91,9.61H0A11.46,11.46,0,0,1,11.47,0V1.86" transform="translate(0 0)"/><path class="cls-23" d="M11.47,1.61h0c-4,1.21-8,4.73-8,9.86H0A11.46,11.46,0,0,1,11.47,0V1.61" transform="translate(0 0)"/><path class="cls-24" d="M11.47,1.31h0c-4,1.28-8.15,5-8,10.16H0A11.46,11.46,0,0,1,11.47,0V1.31" transform="translate(0 0)"/><path class="cls-25" d="M11.47,1c-2.3.76-8.24,4.13-8.08,10.5H0A11.46,11.46,0,0,1,11.47,0V1" transform="translate(0 0)"/><path class="cls-26" d="M11.47.59C8.49,1.51,3,5.65,3.33,11.47H0A11.46,11.46,0,0,1,11.47,0V.59" transform="translate(0 0)"/><path class="cls-27" d="M11.47.23C8.57.9,3,5.48,3.24,11.47H0A11.46,11.46,0,0,1,11.47,0V.23" transform="translate(0 0)"/><path class="cls-28" d="M11.47,0h0C7.78.26,2.9,6.08,3.15,11.47H0A11.46,11.46,0,0,1,11.47,0h0" transform="translate(0 0)"/><path class="cls-29" d="M9.89.11C6.81.62,2.75,6.58,3,11.47H0A11.46,11.46,0,0,1,10.06.09h0l-.17,0" transform="translate(0 0)"/><path class="cls-30" d="M7.87.58c-2.66,1-5.29,6.66-5,10.89H0A11.47,11.47,0,0,1,8,.53H8l-.16,0" transform="translate(0 0)"/></g></g></g><path class="cls-46" d="M146.92,4a7.47,7.47,0,0,1,7.46,7.47V67.72a7.46,7.46,0,0,1-7.46,7.47H11.47A7.47,7.47,0,0,1,4,67.72V11.47A7.47,7.47,0,0,1,11.47,4Z" transform="translate(0 0)"/><g class="cls-2"><g class="cls-47"><g class="cls-2"><path class="cls-33" d="M146.92,4V0a11.47,11.47,0,0,1,11.46,11.47h-4A7.47,7.47,0,0,0,146.92,4" transform="translate(0 0)"/><path class="cls-33" d="M154.67,11.47c-.17-.17,0-.56,0-.8a6.91,6.91,0,0,0-6.19-6.78c5.38,2.14,6.16,5.67,6.14,7.58h-.24A7.47,7.47,0,0,0,146.92,4V0a11.47,11.47,0,0,1,11.46,11.47h-3.71" transform="translate(0 0)"/><path class="cls-34" d="M154.7,11.47c-.09-.09,0-.28,0-.4a7,7,0,0,0-6.57-7.25c2.25.85,3.27,1.23,4.62,2.84a7.9,7.9,0,0,1,1.8,4.81h-.17A7.47,7.47,0,0,0,146.92,4V0a11.47,11.47,0,0,1,11.46,11.47H154.7" transform="translate(0 0)"/><path class="cls-35" d="M154.73,11.47c-.09-.09,0-.28,0-.4a7.09,7.09,0,0,0-7-7.29c3.49,1.31,3.62,1.36,4.72,2.61a7.62,7.62,0,0,1,2,5.08h-.13A7.47,7.47,0,0,0,146.92,4V0a11.47,11.47,0,0,1,11.46,11.47h-3.65" transform="translate(0 0)"/><path class="cls-36" d="M154.75,11.47c-.08-.09,0-.28,0-.4a7.12,7.12,0,0,0-7.33-7.32c.89.37,1.88.45,2.75.91A7.8,7.8,0,0,1,152.5,6.4a7.63,7.63,0,0,1,2,5.07h-.11A7.47,7.47,0,0,0,146.92,4V0a11.47,11.47,0,0,1,11.46,11.47h-3.63" transform="translate(0 0)"/><path class="cls-37" d="M154.78,11.47s0-.09,0-.13a7.18,7.18,0,0,0-2.16-5.59,7.32,7.32,0,0,0-5.71-2V0a11.47,11.47,0,0,1,11.46,11.47h-3.6" transform="translate(0 0)"/><path class="cls-38" d="M154.81,11.47c-.08-.09,0-.29,0-.41a7.25,7.25,0,0,0-2.18-5.32,7.38,7.38,0,0,0-5.73-2.05V0a11.47,11.47,0,0,1,11.46,11.47h-3.57" transform="translate(0 0)"/><path class="cls-39" d="M154.84,11.47c-.09-.09,0-.29,0-.41a7.32,7.32,0,0,0-7.94-7.4V0a11.47,11.47,0,0,1,11.46,11.47h-3.54" transform="translate(0 0)"/><path class="cls-40" d="M154.86,11.47c-.08-.09,0-.29,0-.41a7.32,7.32,0,0,0-8-7.43V0a11.47,11.47,0,0,1,11.46,11.47h-3.52" transform="translate(0 0)"/><path class="cls-41" d="M154.89,11.47c-.09-.09,0-.29,0-.41a7.33,7.33,0,0,0-8-7.46V0a11.47,11.47,0,0,1,11.46,11.47h-3.49" transform="translate(0 0)"/><path class="cls-5" d="M154.91,11.47a7.31,7.31,0,0,0-8-7.9V0a11.47,11.47,0,0,1,11.46,11.47h-3.47" transform="translate(0 0)"/><path class="cls-6" d="M155,11.47c-.17-.18,0-.58,0-.83s0-.5-.07-.71a7.21,7.21,0,0,0-2.13-4.32,7.41,7.41,0,0,0-5.86-2.07V0a11.47,11.47,0,0,1,11.46,11.47H155" transform="translate(0 0)"/><path class="cls-7" d="M155,11.47c-.09-.09,0-.29,0-.42a7.33,7.33,0,0,0-2.19-5.49,7.45,7.45,0,0,0-5.91-2V0a11.47,11.47,0,0,1,11.46,11.47H155" transform="translate(0 0)"/><path class="cls-8" d="M155,11.47c-.07-.07,0-.22,0-.32a7.33,7.33,0,0,0-2.16-5.65,7.61,7.61,0,0,0-6-2V0a11.47,11.47,0,0,1,11.46,11.47H155" transform="translate(0 0)"/><path class="cls-9" d="M155.08,11.47c-.08-.09,0-.3,0-.42A7.37,7.37,0,0,0,153,5.42a7.65,7.65,0,0,0-6-2V0a11.47,11.47,0,0,1,11.46,11.47h-3.3" transform="translate(0 0)"/><path class="cls-10" d="M155.15,11.47c-.07-.08,0-.24,0-.34a7.18,7.18,0,0,0-2.13-5.79,7.59,7.59,0,0,0-6.13-2V0a11.47,11.47,0,0,1,11.46,11.47h-3.23" transform="translate(0 0)"/><path class="cls-11" d="M155.24,11.47c-.09-.1,0-.3,0-.43a7.12,7.12,0,0,0-2.15-5.79,7.61,7.61,0,0,0-6.21-1.93V0a11.47,11.47,0,0,1,11.46,11.47h-3.14" transform="translate(0 0)"/><path class="cls-12" d="M155.33,11.47c-.08-.1,0-.31,0-.44a7.16,7.16,0,0,0-2.15-5.87,7.53,7.53,0,0,0-6.31-1.93V0a11.47,11.47,0,0,1,11.46,11.47h-3" transform="translate(0 0)"/><path class="cls-13" d="M155.44,11.47c-.09-.1,0-.31.05-.44a7.22,7.22,0,0,0-2.16-6,7.59,7.59,0,0,0-6.41-1.92V0a11.47,11.47,0,0,1,11.46,11.47h-2.94" transform="translate(0 0)"/><path class="cls-14" d="M155.56,11.47s0-.09,0-.12A7.35,7.35,0,0,0,153.44,5a7.63,7.63,0,0,0-6.52-1.9V0a11.47,11.47,0,0,1,11.46,11.47h-2.82" transform="translate(0 0)"/><path class="cls-15" d="M155.68,11.47s0-.1,0-.14a7.46,7.46,0,0,0-2.15-6.5,7.63,7.63,0,0,0-6.63-1.89V0a11.47,11.47,0,0,1,11.46,11.47h-2.7" transform="translate(0 0)"/><path class="cls-16" d="M155.81,11.47s0-.06,0-.08a7.44,7.44,0,0,0-2.13-6.69,7.72,7.72,0,0,0-6.77-1.87V0a11.47,11.47,0,0,1,11.46,11.47h-2.57" transform="translate(0 0)"/><path class="cls-17" d="M156,11.47c-.09-.11.05-.33.07-.47a7.44,7.44,0,0,0-2.19-6.45,7.82,7.82,0,0,0-6.91-1.84V0a11.47,11.47,0,0,1,11.46,11.47H156" transform="translate(0 0)"/><path class="cls-18" d="M156.11,11.47c-.08-.09,0-.26.06-.37a7.53,7.53,0,0,0-2.08-6.61,7.92,7.92,0,0,0-7.17-1.92V0a11.47,11.47,0,0,1,11.46,11.47h-2.27" transform="translate(0 0)"/><path class="cls-19" d="M156.28,11.47c-.09-.11.06-.34.09-.49a7.55,7.55,0,0,0-2.2-6.77c-1-1-3.29-2.49-7.25-1.78V0a11.47,11.47,0,0,1,11.46,11.47h-2.1" transform="translate(0 0)"/><path class="cls-20" d="M156.48,11.47s0-.11,0-.15A7.55,7.55,0,0,0,154.36,4c-1.05-1-3.41-2.58-7.44-1.76V0a11.47,11.47,0,0,1,11.46,11.47h-1.9" transform="translate(0 0)"/><path class="cls-21" d="M156.71,11.47s0-.05,0-.08a7.6,7.6,0,0,0-2.16-7.57c-1.33-1.28-3.73-2.61-7.64-1.74V0a11.47,11.47,0,0,1,11.46,11.47h-1.67" transform="translate(0 0)"/><path class="cls-22" d="M157,11.47c0-.05,0-.16.05-.22a7.75,7.75,0,0,0-2.26-7.62c-2-2-4.68-2.55-7.84-1.77V0a11.47,11.47,0,0,1,11.46,11.47H157" transform="translate(0 0)"/><path class="cls-23" d="M157.27,11.47s0-.09,0-.13a8,8,0,0,0-2.38-7.88,7.86,7.86,0,0,0-8-1.85V0a11.47,11.47,0,0,1,11.46,11.47h-1.11" transform="translate(0 0)"/><path class="cls-24" d="M157.6,11.47s0-.08,0-.11c1.08-4.21-2-7.39-2.62-8a7.56,7.56,0,0,0-8.09-2V0a11.47,11.47,0,0,1,11.46,11.47h-.78" transform="translate(0 0)"/><path class="cls-25" d="M152.86,1.66A6.76,6.76,0,0,0,146.92,1V0a11.4,11.4,0,0,1,6,1.72l-.09-.06" transform="translate(0 0)"/><path class="cls-48" d="M154.59,10.68c-.92-4-2.82-5.48-5.79-6.72a6.88,6.88,0,0,1,5.83,6.89l0-.17" transform="translate(0 0)"/><path class="cls-26" d="M150.58.6a6,6,0,0,0-3.66,0V0a11.58,11.58,0,0,1,3.92.69L150.58.6" transform="translate(0 0)"/><path class="cls-25" d="M157.94,11.47s0-.07,0-.1a7.08,7.08,0,0,0-.43-4.24,11.38,11.38,0,0,1,.85,4.34h-.44" transform="translate(0 0)"/><path class="cls-49" d="M154.55,10.3a8.62,8.62,0,0,0-5.41-6.25,6.78,6.78,0,0,1,5.46,6.45,1.46,1.46,0,0,1,0-.2" transform="translate(0 0)"/><path class="cls-50" d="M154.48,9.91a8.81,8.81,0,0,0-5-5.75,6.65,6.65,0,0,1,5.06,6l-.06-.23" transform="translate(0 0)"/><path class="cls-51" d="M154.39,9.54a8.68,8.68,0,0,0-4.56-5.24,6.58,6.58,0,0,1,4.64,5.47,2.09,2.09,0,0,0-.08-.23" transform="translate(0 0)"/><path class="cls-52" d="M154.29,9.17a8.77,8.77,0,0,0-4.1-4.72,6.42,6.42,0,0,1,4.19,4.94c0-.06-.06-.15-.09-.22" transform="translate(0 0)"/><path class="cls-37" d="M154.38,11.47A7.47,7.47,0,0,0,146.92,4V3.88h.33c1.43-.3,7.2,2,7.23,7.6h-.1" transform="translate(0 0)"/><path class="cls-27" d="M148.84.17a5.31,5.31,0,0,0-1.92.06V0a11.59,11.59,0,0,1,2.14.2l-.22,0" transform="translate(0 0)"/><path class="cls-53" d="M154.18,8.81a9,9,0,0,0-3.61-4.17A6.21,6.21,0,0,1,154.25,9l-.07-.19" transform="translate(0 0)"/><path class="cls-38" d="M154.38,11.47A7.47,7.47,0,0,0,146.92,4V3.9h.39a7.72,7.72,0,0,1,7.15,7.57h-.08" transform="translate(0 0)"/><path class="cls-26" d="M158.23,11.47s0,0,0-.06a6,6,0,0,0-.05-2,11.16,11.16,0,0,1,.19,2.1h-.15" transform="translate(0 0)"/><path class="cls-39" d="M154.38,11.47A7.47,7.47,0,0,0,146.92,4V3.92h.39a7.6,7.6,0,0,1,7.14,7.55h-.07" transform="translate(0 0)"/><path class="cls-54" d="M154,8.46A8.93,8.93,0,0,0,151,4.88a6,6,0,0,1,3.11,3.67L154,8.46" transform="translate(0 0)"/><path class="cls-40" d="M154.38,11.47A7.47,7.47,0,0,0,146.92,4V3.94h.38a7.58,7.58,0,0,1,7.13,7.53h-.05" transform="translate(0 0)"/><path class="cls-41" d="M154.38,11.47A7.47,7.47,0,0,0,146.92,4V4h.38a7.52,7.52,0,0,1,7.11,7.5h0" transform="translate(0 0)"/><path class="cls-55" d="M153.71,7.79a9.05,9.05,0,0,0-2.26-2.6,6,6,0,0,1,2.41,2.86,2.2,2.2,0,0,0-.15-.26" transform="translate(0 0)"/><path class="cls-5" d="M154.38,11.47A7.47,7.47,0,0,0,146.92,4h.38a7.5,7.5,0,0,1,7.1,7.48h0" transform="translate(0 0)"/><path class="cls-55" d="M153.33,7.15a8.29,8.29,0,0,0-1.27-1.46,6,6,0,0,1,1.41,1.66l-.14-.2" transform="translate(0 0)"/><path class="cls-28" d="M147.13,0h0" transform="translate(0 0)"/><path class="cls-27" d="M158.38,11.47c0-.05,0-.17,0-.24v.24h0" transform="translate(0 0)"/></g></g></g></g></svg>